<svg width="12" height="24" viewBox="0 0 12 24" fill="none" xmlns="http://www.w3.org/2000/svg">
<path d="M10.0078 23.9999C9.75174 24.0008 9.49872 23.9442 9.26735 23.8345C9.03598 23.7247 8.83214 23.5645 8.67081 23.3657L0.391591 13.0809C0.139474 12.7742 0.00164795 12.3895 0.00164795 11.9924C0.00164795 11.5954 0.139474 11.2107 0.391591 10.904L8.96221 0.619231C9.25316 0.269179 9.67126 0.0490432 10.1245 0.00725332C10.5778 -0.0345366 11.0291 0.105442 11.3791 0.396395C11.7292 0.687348 11.9493 1.10544 11.9911 1.5587C12.0329 2.01196 11.8929 2.46326 11.602 2.81331L3.93983 12.001L11.3448 21.1887C11.5545 21.4403 11.6876 21.7467 11.7285 22.0716C11.7695 22.3965 11.7165 22.7264 11.5758 23.0221C11.4352 23.3178 11.2127 23.5671 10.9349 23.7404C10.657 23.9137 10.3353 24.0037 10.0078 23.9999Z" fill="#0E0E0F"/>
</svg>
