<svg width="24" height="24" viewBox="0 0 24 24" fill="none" xmlns="http://www.w3.org/2000/svg">
<path d="M7.61391 11.3342L7.61391 11.3343C7.51111 12.9735 6.96055 14.5531 6.02218 15.9011C6.0205 15.9035 6.01948 15.9063 6.0192 15.9093C6.01893 15.9122 6.01942 15.9151 6.02061 15.9178C6.02181 15.9205 6.02368 15.9228 6.02605 15.9245C6.02841 15.9263 6.03118 15.9274 6.03409 15.9277L9.77097 16.3767L7.61391 11.3342ZM7.61391 11.3342L7.83391 7.80026C7.87556 7.13658 8.16859 6.51373 8.65334 6.0585C9.13808 5.60328 9.7781 5.34992 10.4431 5.35H10.4431M7.61391 11.3342L10.4431 5.35M10.4431 5.35H13.5571C14.2221 5.34992 14.8621 5.60328 15.3469 6.0585C15.8316 6.51373 16.1246 7.13658 16.1663 7.80026L16.3873 11.3342C16.4898 12.9734 17.04 14.553 17.978 15.9011L17.978 15.9011M10.4431 5.35L17.978 15.9011M17.978 15.9011C17.9792 15.9028 17.98 15.9047 17.9805 15.9066C17.9808 15.9075 17.9809 15.9084 17.981 15.9093C17.9813 15.9122 17.9808 15.9151 17.9796 15.9178C17.9784 15.9205 17.9765 15.9228 17.9742 15.9245C17.9718 15.9263 17.969 15.9274 17.9661 15.9277L14.2292 16.3767M17.978 15.9011L14.2292 16.3767M14.2292 16.3767L14.2292 16.3767C12.7481 16.5538 11.2521 16.5538 9.77103 16.3767L14.2292 16.3767ZM13.1001 3.65V3C13.1001 2.70826 12.9842 2.42847 12.7779 2.22218C12.5716 2.01589 12.2918 1.9 12.0001 1.9C11.7084 1.9 11.4286 2.01589 11.2223 2.22218C11.016 2.42847 10.9001 2.70826 10.9001 3V3.65H10.4431C9.3457 3.64993 8.28952 4.06808 7.48957 4.81934C6.68962 5.5706 6.20605 6.59848 6.1373 7.69374L6.1373 7.69376L5.9163 11.2278C5.83317 12.5569 5.38687 13.8378 4.62603 14.9309L4.62602 14.9309C4.45679 15.1741 4.3534 15.457 4.32588 15.752C4.29836 16.0471 4.34766 16.3442 4.46898 16.6145C4.5903 16.8848 4.77952 17.1192 5.01823 17.2947C5.25693 17.4703 5.53701 17.581 5.83121 17.6163L5.8431 17.517L5.83121 17.6163L9.1501 18.0137V19C9.1501 19.7559 9.45037 20.4808 9.98485 21.0153C10.5193 21.5497 11.2442 21.85 12.0001 21.85C12.756 21.85 13.4809 21.5497 14.0154 21.0153C14.5498 20.4808 14.8501 19.7559 14.8501 19V18.0137L18.169 17.6153L18.169 17.6153C18.4631 17.5799 18.743 17.4691 18.9815 17.2937C19.2201 17.1182 19.4092 16.884 19.5305 16.6138C19.6518 16.3436 19.7011 16.0467 19.6738 15.7518C19.6464 15.4569 19.5432 15.1742 19.3742 14.9309L19.3742 14.9309C18.6133 13.8378 18.167 12.557 18.0839 11.2278L17.8629 7.69476C17.7944 6.59932 17.3109 5.57119 16.511 4.81972C15.711 4.06824 14.6547 3.64994 13.5571 3.65H13.1001ZM12.0001 20.15C11.3653 20.15 10.8501 19.6348 10.8501 19V18.35H13.1501V19C13.1501 19.6348 12.6349 20.15 12.0001 20.15Z" fill="#040009" stroke="#040009" stroke-width="0.2"/>
</svg>
