<svg width="17" height="21" viewBox="0 0 17 21" fill="none" xmlns="http://www.w3.org/2000/svg">
<path d="M4.11391 10.3342L4.11391 10.3343C4.01111 11.9735 3.46055 13.5531 2.52218 14.9011C2.5205 14.9035 2.51948 14.9063 2.5192 14.9093C2.51893 14.9122 2.51942 14.9151 2.52061 14.9178C2.52181 14.9205 2.52368 14.9228 2.52605 14.9245C2.52841 14.9263 2.53118 14.9274 2.53409 14.9277L6.27097 15.3767L4.11391 10.3342ZM4.11391 10.3342L4.33391 6.80026C4.37556 6.13658 4.66859 5.51373 5.15334 5.0585C5.63808 4.60328 6.2781 4.34992 6.94309 4.35H6.9431M4.11391 10.3342L6.9431 4.35M6.9431 4.35H10.0571C10.7221 4.34992 11.3621 4.60328 11.8469 5.0585C12.3316 5.51373 12.6246 6.13658 12.6663 6.80026L12.8873 10.3342C12.9898 11.9734 13.54 13.553 14.478 14.9011L14.478 14.9011M6.9431 4.35L14.478 14.9011M14.478 14.9011C14.4792 14.9028 14.48 14.9047 14.4805 14.9066C14.4808 14.9075 14.4809 14.9084 14.481 14.9093C14.4813 14.9122 14.4808 14.9151 14.4796 14.9178C14.4784 14.9205 14.4765 14.9228 14.4742 14.9245C14.4718 14.9263 14.469 14.9274 14.4661 14.9277L10.7292 15.3767M14.478 14.9011L10.7292 15.3767M10.7292 15.3767L10.7292 15.3767C9.2481 15.5538 7.75211 15.5538 6.27103 15.3767L10.7292 15.3767ZM9.6001 2.65V2C9.6001 1.70826 9.48421 1.42847 9.27792 1.22218C9.07163 1.01589 8.79184 0.9 8.5001 0.9C8.20836 0.9 7.92858 1.01589 7.72229 1.22218C7.516 1.42847 7.4001 1.70826 7.4001 2V2.65H6.9431C5.8457 2.64993 4.78952 3.06808 3.98957 3.81934C3.18962 4.5706 2.70605 5.59848 2.6373 6.69374L2.6373 6.69376L2.4163 10.2278C2.33317 11.5569 1.88687 12.8378 1.12603 13.9309L1.12602 13.9309C0.956793 14.1741 0.853395 14.457 0.825878 14.752C0.79836 15.0471 0.84766 15.3442 0.968982 15.6145C1.0903 15.8848 1.27952 16.1192 1.51823 16.2947C1.75693 16.4703 2.03701 16.581 2.33121 16.6163L2.3431 16.517L2.33121 16.6163L5.6501 17.0137V18C5.6501 18.7559 5.95037 19.4808 6.48485 20.0153C7.01933 20.5497 7.74424 20.85 8.5001 20.85C9.25597 20.85 9.98088 20.5497 10.5154 20.0153C11.0498 19.4808 11.3501 18.7559 11.3501 18V17.0137L14.669 16.6153L14.669 16.6153C14.9631 16.5799 15.243 16.4691 15.4815 16.2937C15.7201 16.1182 15.9092 15.884 16.0305 15.6138C16.1518 15.3436 16.2011 15.0467 16.1738 14.7518C16.1464 14.4569 16.0432 14.1742 15.8742 13.9309L15.8742 13.9309C15.1133 12.8378 14.667 11.557 14.5839 10.2278L14.3629 6.69476C14.2944 5.59932 13.8109 4.57119 13.011 3.81972C12.211 3.06824 11.1547 2.64994 10.0571 2.65H9.6001ZM8.5001 19.15C7.86533 19.15 7.3501 18.6348 7.3501 18V17.35H9.6501V18C9.6501 18.6348 9.13487 19.15 8.5001 19.15Z" fill="#040009" stroke="#040009" stroke-width="0.2"/>
</svg>
