<svg width="16" height="20" viewBox="0 0 16 20" fill="none" xmlns="http://www.w3.org/2000/svg">
<path fill-rule="evenodd" clip-rule="evenodd" d="M2.23695 5.7C2.30411 4.63014 2.77647 3.62608 3.55787 2.89224C4.33928 2.15839 5.37098 1.74993 6.44295 1.75H6.99995V1C6.99995 0.734784 7.10531 0.48043 7.29284 0.292893C7.48038 0.105357 7.73473 0 7.99995 0C8.26517 0 8.51952 0.105357 8.70706 0.292893C8.89459 0.48043 8.99995 0.734784 8.99995 1V1.75H9.55695C10.6289 1.74993 11.6606 2.15839 12.442 2.89224C13.2234 3.62608 13.6958 4.63014 13.7629 5.7L13.9839 9.234C14.0682 10.5815 14.5206 11.88 15.2919 12.988C15.4513 13.2171 15.5487 13.4835 15.5746 13.7613C15.6005 14.0392 15.5541 14.319 15.4398 14.5736C15.3256 14.8281 15.1474 15.0488 14.9226 15.2142C14.6978 15.3795 14.434 15.4838 14.1569 15.517L10.7499 15.925V17C10.7499 17.7293 10.4602 18.4288 9.94449 18.9445C9.42877 19.4603 8.7293 19.75 7.99995 19.75C7.2706 19.75 6.57113 19.4603 6.05541 18.9445C5.53968 18.4288 5.24995 17.7293 5.24995 17V15.925L1.84295 15.516C1.56604 15.4827 1.30246 15.3784 1.0778 15.2131C0.853133 15.0478 0.675034 14.8273 0.560802 14.5729C0.446569 14.3184 0.400087 14.0388 0.425871 13.7611C0.451654 13.4834 0.548828 13.2171 0.70795 12.988C1.47925 11.8799 1.93168 10.5814 2.01595 9.234L2.23695 5.7ZM6.44295 3.25C5.75252 3.24992 5.08802 3.51297 4.58473 3.98561C4.08144 4.45825 3.7772 5.10493 3.73395 5.794L3.51395 9.328C3.41229 10.949 2.86787 12.511 1.93995 13.844C1.92842 13.8606 1.92137 13.8798 1.91949 13.8999C1.9176 13.92 1.92095 13.9403 1.9292 13.9587C1.93746 13.9771 1.95034 13.9931 1.96659 14.005C1.98284 14.017 2.00191 14.0246 2.02195 14.027L5.75895 14.476C7.24795 14.654 8.75195 14.654 10.2409 14.476L13.978 14.027C13.998 14.0246 14.0171 14.017 14.0333 14.005C14.0496 13.9931 14.0624 13.9771 14.0707 13.9587C14.0789 13.9403 14.0823 13.92 14.0804 13.8999C14.0785 13.8798 14.0715 13.8606 14.0599 13.844C13.1323 12.5109 12.5883 10.9489 12.4869 9.328L12.266 5.794C12.2227 5.10493 11.9185 4.45825 11.4152 3.98561C10.9119 3.51297 10.2474 3.24992 9.55695 3.25H6.44295ZM7.99995 18.25C7.30995 18.25 6.74995 17.69 6.74995 17V16.25H9.24995V17C9.24995 17.69 8.68995 18.25 7.99995 18.25Z" fill="black"/>
</svg>
