<svg width="20" height="20" viewBox="0 0 20 20" fill="none" xmlns="http://www.w3.org/2000/svg">
<path d="M10.0002 0.833008C4.94016 0.833008 0.833496 4.93967 0.833496 9.99967C0.833496 15.0597 4.94016 19.1663 10.0002 19.1663C15.0602 19.1663 19.1668 15.0597 19.1668 9.99967C19.1668 4.93967 15.0602 0.833008 10.0002 0.833008ZM2.66683 9.99967C2.66683 5.94801 5.9485 2.66634 10.0002 2.66634C11.696 2.66634 13.2543 3.24384 14.4918 4.21551L4.216 14.4913C3.20928 13.2109 2.66352 11.6285 2.66683 9.99967ZM10.0002 17.333C8.30433 17.333 6.746 16.7555 5.5085 15.7838L15.7843 5.50801C16.791 6.78847 17.3368 8.37086 17.3335 9.99967C17.3335 14.0513 14.0518 17.333 10.0002 17.333Z" fill="#D51D2B"/>
</svg>
