<svg width="30" height="20" viewBox="0 0 30 20" fill="none" xmlns="http://www.w3.org/2000/svg">
<path fill-rule="evenodd" clip-rule="evenodd" d="M0.343206 11.4365C0.685334 13.6028 1.78939 15.5758 3.4567 17.0006C5.12401 18.4253 7.24508 19.2082 9.43821 19.2083H20.5619C23.0041 19.2083 25.3462 18.2382 27.0731 16.5113C28.8 14.7844 29.7702 12.4422 29.7702 9.99999C29.7702 7.55779 28.8 5.21561 27.0731 3.48871C25.3462 1.76182 23.0041 0.791656 20.5619 0.791656H9.43821C8.10752 0.791743 6.79265 1.08024 5.58416 1.63727C4.37567 2.1943 3.30226 3.00664 2.43785 4.01834C1.57345 5.03005 0.938584 6.21708 0.576978 7.4977C0.215373 8.77831 0.135618 10.1221 0.343206 11.4365ZM20.6667 14.9583C21.3601 14.9559 22.0453 14.8079 22.6779 14.5239C23.3104 14.24 23.8763 13.8263 24.3389 13.3098C24.8015 12.7932 25.1505 12.1853 25.3633 11.5254C25.576 10.8654 25.6478 10.1681 25.574 9.47866C25.4469 8.26421 24.8756 7.13954 23.9699 6.3206C23.0641 5.50167 21.8878 5.0462 20.6667 5.04166C19.9733 5.04407 19.2881 5.19205 18.6556 5.47603C18.023 5.76002 17.4571 6.17367 16.9945 6.69021C16.5319 7.20675 16.1829 7.81467 15.9702 8.47463C15.7574 9.13458 15.6856 9.83186 15.7594 10.5213C15.8865 11.7358 16.4578 12.8604 17.3635 13.6794C18.2693 14.4983 19.4456 14.9538 20.6667 14.9583Z" fill="#30084F"/>
</svg>
