<svg width="36" height="33" viewBox="0 0 36 33" fill="none" xmlns="http://www.w3.org/2000/svg">
<path d="M32.9218 10.4764C31.0429 7.89823 28.4179 6.17558 25.539 5.39823V5.40214C24.8711 4.65995 24.1172 3.97636 23.2734 3.36698C16.8789 -1.28146 7.90231 0.136513 3.23434 6.53104C-0.527377 11.7264 -0.36722 18.7146 3.46872 23.6795L3.49997 28.8592C3.49997 28.9842 3.5195 29.1092 3.55856 29.2264C3.76559 29.8865 4.46872 30.2498 5.12497 30.0428L10.0703 28.4842C11.3789 28.949 12.7304 29.2146 14.0742 29.2889L14.0547 29.3045C17.5351 31.8396 22.0976 32.6014 26.2812 31.2185L31.2461 32.8357C31.3711 32.8748 31.5 32.8982 31.6328 32.8982C32.3242 32.8982 32.8828 32.3396 32.8828 31.6482V26.4139C36.3242 21.742 36.414 15.285 32.9218 10.4764ZM10.6172 25.7107L10.1484 25.5154L6.28122 26.7264L6.24215 22.6639L5.92965 22.3123C2.62497 18.281 2.40622 12.4725 5.49997 8.21073C9.26559 3.04667 16.4843 1.90604 21.6328 5.63261C26.7968 9.38651 27.9414 16.5935 24.2109 21.7264C21.082 26.0193 15.4804 27.6053 10.6172 25.7107ZM30.3437 25.0467L30.0312 25.4373L30.0703 29.4998L26.2422 28.2107L25.7734 28.406C23.5859 29.2185 21.2539 29.285 19.0937 28.6795L19.0859 28.6756C21.9726 27.7889 24.5898 25.992 26.4765 23.406C29.4609 19.2928 29.9453 14.1248 28.2109 9.71854L28.2343 9.73417C29.1328 10.3787 29.957 11.1834 30.6562 12.156C33.4921 16.0467 33.332 21.3435 30.3437 25.0467Z" fill="#310A50"/>
</svg>
