<svg width="62" height="62" viewBox="0 0 62 62" fill="none" xmlns="http://www.w3.org/2000/svg">
<g filter="url(#filter0_d_642_28542)">
<rect x="5" y="5" width="40" height="40" rx="20" fill="#2D0D57"/>
<path fill-rule="evenodd" clip-rule="evenodd" d="M26.3333 18.3333C26.3333 17.9797 26.1929 17.6406 25.9428 17.3905C25.6928 17.1405 25.3536 17 25 17C24.6464 17 24.3072 17.1405 24.0572 17.3905C23.8071 17.6406 23.6667 17.9797 23.6667 18.3333V23.6667H18.3333C17.9797 23.6667 17.6406 23.8071 17.3905 24.0572C17.1405 24.3072 17 24.6464 17 25C17 25.3536 17.1405 25.6928 17.3905 25.9428C17.6406 26.1929 17.9797 26.3333 18.3333 26.3333H23.6667V31.6667C23.6667 32.0203 23.8071 32.3594 24.0572 32.6095C24.3072 32.8595 24.6464 33 25 33C25.3536 33 25.6928 32.8595 25.9428 32.6095C26.1929 32.3594 26.3333 32.0203 26.3333 31.6667V26.3333H31.6667C32.0203 26.3333 32.3594 26.1929 32.6095 25.9428C32.8595 25.6928 33 25.3536 33 25C33 24.6464 32.8595 24.3072 32.6095 24.0572C32.3594 23.8071 32.0203 23.6667 31.6667 23.6667H26.3333V18.3333Z" fill="#FEFEFE"/>
</g>
<defs>
<filter id="filter0_d_642_28542" x="0" y="0" width="62" height="62" filterUnits="userSpaceOnUse" color-interpolation-filters="sRGB">
<feFlood flood-opacity="0" result="BackgroundImageFix"/>
<feColorMatrix in="SourceAlpha" type="matrix" values="0 0 0 0 0 0 0 0 0 0 0 0 0 0 0 0 0 0 127 0" result="hardAlpha"/>
<feMorphology radius="1" operator="dilate" in="SourceAlpha" result="effect1_dropShadow_642_28542"/>
<feOffset dx="6" dy="6"/>
<feGaussianBlur stdDeviation="5"/>
<feComposite in2="hardAlpha" operator="out"/>
<feColorMatrix type="matrix" values="0 0 0 0 0 0 0 0 0 0 0 0 0 0 0 0 0 0 0.1 0"/>
<feBlend mode="normal" in2="BackgroundImageFix" result="effect1_dropShadow_642_28542"/>
<feBlend mode="normal" in="SourceGraphic" in2="effect1_dropShadow_642_28542" result="shape"/>
</filter>
</defs>
</svg>
