<svg width="24" height="24" viewBox="0 0 24 24" fill="none" xmlns="http://www.w3.org/2000/svg">
<path d="M6.66669 5.83335C5.93031 5.83335 5.33335 6.43031 5.33335 7.16669C5.33335 7.90307 5.93031 8.50002 6.66669 8.50002H17.3334C18.0697 8.50002 18.6667 7.90307 18.6667 7.16669C18.6667 6.43031 18.0697 5.83335 17.3334 5.83335H6.66669Z" fill="black"/>
<path d="M6.66669 11.1667C5.93031 11.1667 5.33335 11.7636 5.33335 12.5C5.33335 13.2364 5.93031 13.8334 6.66669 13.8334H13.3334C14.0697 13.8334 14.6667 13.2364 14.6667 12.5C14.6667 11.7636 14.0697 11.1667 13.3334 11.1667H6.66669Z" fill="black"/>
<path fill-rule="evenodd" clip-rule="evenodd" d="M7.22 19.1667H16.2667C17.3653 19.1667 18.268 19.1667 19.0027 19.108C19.752 19.0467 20.4413 18.9147 21.088 18.5853C22.0915 18.074 22.9073 17.2582 23.4187 16.2547C23.748 15.608 23.88 14.9187 23.9413 14.1693C24.0001 13.4517 24 12.5705 24 11.5035V8.23333C24 7.13467 24 6.232 23.9413 5.49733C23.88 4.748 23.748 4.05867 23.4187 3.412C22.9073 2.40851 22.0915 1.59265 21.088 1.08133C20.4413 0.752 19.752 0.62 19.0027 0.558667C18.2693 0.5 17.3653 0.5 16.2667 0.5H7.73333C6.63467 0.5 5.732 0.5 4.99733 0.558667C4.248 0.62 3.55867 0.752 2.912 1.08133C1.90851 1.59265 1.09265 2.40851 0.581334 3.412C0.252 4.05867 0.12 4.748 0.0586665 5.49733C0 6.23067 0 7.13467 0 8.23333V21.7187C0 23.44 2.08267 24.3027 3.3 23.0853L7.22 19.1667ZM2.71733 5.71467C2.66667 6.31467 2.66667 7.09067 2.66667 8.23333V19.948L5.33333 17.2813C5.83331 16.7812 6.51148 16.5002 7.21867 16.5H16.2667C17.4093 16.5 18.1853 16.4987 18.7853 16.4493C19.3707 16.4027 19.6693 16.316 19.8773 16.2093C20.3791 15.9537 20.787 15.5457 21.0427 15.044C21.1493 14.836 21.236 14.536 21.2827 13.952C21.3333 13.352 21.3333 12.576 21.3333 11.4333V8.23333C21.3333 7.09067 21.3333 6.31467 21.2827 5.71467C21.236 5.12933 21.1493 4.83067 21.0427 4.62267C20.787 4.12092 20.3791 3.71299 19.8773 3.45733C19.6693 3.35067 19.3693 3.264 18.7853 3.21733C18.1853 3.16667 17.4093 3.16667 16.2667 3.16667H7.73333C6.59067 3.16667 5.81467 3.16667 5.21467 3.21733C4.62933 3.264 4.33067 3.35067 4.12267 3.45733C3.62092 3.71299 3.21299 4.12092 2.95733 4.62267C2.85067 4.83067 2.764 5.13067 2.71733 5.71467Z" fill="black"/>
</svg>
