<svg width="24" height="24" viewBox="0 0 24 24" fill="none" xmlns="http://www.w3.org/2000/svg">
<path fill-rule="evenodd" clip-rule="evenodd" d="M23.3907 4.93867C24 6.40933 24 8.272 24 12C24 15.728 24 17.592 23.3907 19.0613C22.5787 21.0214 21.0214 22.5787 19.0613 23.3907C17.592 24 15.728 24 12 24H8C4.22933 24 2.34267 24 1.172 22.828C-1.19209e-07 21.6573 0 19.7707 0 16V12C0 8.272 5.96046e-08 6.40933 0.609333 4.93867C1.42128 2.97858 2.97858 1.42128 4.93867 0.609333C6.40933 5.96046e-08 8.272 0 12 0C15.728 0 17.592 5.96046e-08 19.0613 0.609333C21.0214 1.42128 22.5787 2.97858 23.3907 4.93867ZM6.66667 9.33333C6.66667 8.97971 6.80714 8.64057 7.05719 8.39052C7.30724 8.14048 7.64638 8 8 8H16C16.3536 8 16.6928 8.14048 16.9428 8.39052C17.1929 8.64057 17.3333 8.97971 17.3333 9.33333C17.3333 9.68696 17.1929 10.0261 16.9428 10.2761C16.6928 10.5262 16.3536 10.6667 16 10.6667H8C7.64638 10.6667 7.30724 10.5262 7.05719 10.2761C6.80714 10.0261 6.66667 9.68696 6.66667 9.33333ZM6.66667 14.6667C6.66667 14.313 6.80714 13.9739 7.05719 13.7239C7.30724 13.4738 7.64638 13.3333 8 13.3333H12C12.3536 13.3333 12.6928 13.4738 12.9428 13.7239C13.1929 13.9739 13.3333 14.313 13.3333 14.6667C13.3333 15.0203 13.1929 15.3594 12.9428 15.6095C12.6928 15.8595 12.3536 16 12 16H8C7.64638 16 7.30724 15.8595 7.05719 15.6095C6.80714 15.3594 6.66667 15.0203 6.66667 14.6667Z" fill="black"/>
</svg>
