<svg width="12" height="16" viewBox="0 0 12 16" fill="none" xmlns="http://www.w3.org/2000/svg">
<path d="M2.44514 15.3298H9.55657C10.9429 15.3298 11.6326 14.6267 11.6326 13.2338V7.15351C11.6326 6.28951 11.5389 5.91466 11.0031 5.36551L7.30657 1.60894C6.798 1.08637 6.38257 0.972656 5.626 0.972656H2.44514C1.06571 0.972656 0.369141 1.68237 0.369141 3.07551V13.2338C0.369141 14.6332 1.06571 15.3298 2.44514 15.3298ZM2.49857 14.2518C1.80885 14.2518 1.44714 13.8832 1.44714 13.2138V3.09551C1.44714 2.43266 1.80886 2.05066 2.50543 2.05066H5.47857V5.94151C5.47857 6.78523 5.90714 7.20037 6.73743 7.20037H10.5546V13.2138C10.5546 13.8832 10.1994 14.2518 9.50314 14.2518H2.49857ZM6.858 6.18894C6.59686 6.18894 6.48943 6.08208 6.48943 5.81408V2.25837L10.3466 6.18923L6.858 6.18894Z" fill="#9E9CA0"/>
</svg>
