<svg width="16" height="16" viewBox="0 0 16 16" fill="none" xmlns="http://www.w3.org/2000/svg">
<g clip-path="url(#clip0_1563_53380)">
<path d="M12.4396 1.43995C12.5774 1.29429 12.7429 1.17773 12.9265 1.09716C13.1101 1.01659 13.308 0.973636 13.5085 0.970848C13.709 0.96806 13.908 1.00549 14.0937 1.08093C14.2795 1.15636 14.4482 1.26827 14.59 1.41004C14.7318 1.55181 14.8437 1.72057 14.9191 1.90633C14.9946 2.09209 15.032 2.29109 15.0292 2.49156C15.0264 2.69204 14.9835 2.88992 14.9029 3.07351C14.8223 3.2571 14.7058 3.42268 14.5601 3.56045L10.1651 7.95545C10.1593 7.96126 10.1547 7.96815 10.1515 7.97575C10.1484 7.98334 10.1467 7.99148 10.1467 7.9997C10.1467 8.00792 10.1484 8.01606 10.1515 8.02365C10.1547 8.03125 10.1593 8.03814 10.1651 8.04395L14.5601 12.439C14.7013 12.5778 14.8135 12.7432 14.8905 12.9257C14.9674 13.1082 15.0074 13.304 15.0082 13.5021C15.0091 13.7001 14.9707 13.8963 14.8953 14.0794C14.8199 14.2625 14.709 14.4288 14.569 14.5689C14.429 14.7089 14.2627 14.8198 14.0796 14.8953C13.8965 14.9707 13.7003 15.0091 13.5023 15.0083C13.3043 15.0075 13.1084 14.9676 12.9259 14.8907C12.7434 14.8138 12.578 14.7016 12.4391 14.5605L8.0441 10.1655C8.03829 10.1596 8.0314 10.155 8.0238 10.1519C8.01621 10.1487 8.00807 10.1471 7.99985 10.1471C7.99163 10.1471 7.98349 10.1487 7.97589 10.1519C7.9683 10.155 7.9614 10.1596 7.9556 10.1655L3.5606 14.5605C3.42174 14.7016 3.25631 14.8139 3.07385 14.8908C2.89139 14.9677 2.6955 15.0077 2.4975 15.0086C2.29949 15.0094 2.10327 14.971 1.92017 14.8956C1.73707 14.8203 1.57071 14.7094 1.43068 14.5694C1.29064 14.4294 1.17972 14.263 1.10429 14.08C1.02887 13.8969 0.99044 13.7007 0.991223 13.5027C0.992006 13.3047 1.03198 13.1088 1.10885 12.9263C1.18572 12.7438 1.29796 12.5783 1.4391 12.4395L5.8341 8.04445C5.83992 8.03864 5.84454 8.03175 5.84769 8.02415C5.85084 8.01656 5.85246 8.00842 5.85246 8.0002C5.85246 7.99198 5.85084 7.98384 5.84769 7.97625C5.84454 7.96865 5.83992 7.96176 5.8341 7.95595L1.4391 3.56095C1.16154 3.2789 1.00668 2.89861 1.00825 2.5029C1.00981 2.1072 1.16767 1.72814 1.44745 1.4483C1.72722 1.16846 2.10625 1.0105 2.50195 1.00885C2.89766 1.00719 3.27799 1.16196 3.5601 1.43945L7.9551 5.83445C7.9609 5.84027 7.9678 5.84489 7.97539 5.84804C7.98299 5.85119 7.99113 5.85281 7.99935 5.85281C8.00757 5.85281 8.01571 5.85119 8.0233 5.84804C8.03089 5.84489 8.03779 5.84027 8.0436 5.83445L12.4396 1.43995Z" fill="#D51D2B"/>
</g>
<defs>
<clipPath id="clip0_1563_53380">
<rect width="16" height="16" fill="white"/>
</clipPath>
</defs>
</svg>
