<svg width="38" height="38" viewBox="0 0 38 38" fill="none" xmlns="http://www.w3.org/2000/svg">
<g filter="url(#filter0_d_1563_65500)">
<rect x="4" y="3" width="30" height="30" rx="15" fill="white"/>
<path d="M18.6465 21.2344V17.7773C18.6465 17.0625 18.5664 16.5391 18.4062 16.207C18.1562 15.6914 17.8047 15.4336 17.3516 15.4336C16.9102 15.4336 16.5586 15.6914 16.2969 16.207C16.1328 16.5391 16.0508 17.0625 16.0508 17.7773C16.0508 18.418 16.1328 18.9414 16.2969 19.3477C16.5039 19.8555 16.8438 20.1934 17.3164 20.3613L16.877 21.2344H16.8184C16.1465 20.9688 15.6406 20.4785 15.3008 19.7637C15.0195 19.1738 14.8789 18.5117 14.8789 17.7773C14.8789 16.9727 15.0195 16.3105 15.3008 15.791C15.793 14.8887 16.4766 14.4375 17.3516 14.4375C18.1289 14.4375 18.7559 14.7969 19.2324 15.5156C19.709 14.7969 20.3359 14.4375 21.1133 14.4375C21.9883 14.4375 22.6719 14.8887 23.1641 15.791C23.4453 16.3105 23.5859 16.9727 23.5859 17.7773C23.5859 18.5273 23.4453 19.1895 23.1641 19.7637C22.8242 20.4785 22.3184 20.9688 21.6465 21.2344H21.5879L21.1484 20.3613C21.6211 20.1934 21.9609 19.8555 22.168 19.3477C22.332 18.9414 22.4141 18.418 22.4141 17.7773C22.4141 17.0625 22.332 16.5391 22.168 16.207C21.9102 15.6914 21.5586 15.4336 21.1133 15.4336C20.668 15.4336 20.3164 15.6914 20.0586 16.207C19.8984 16.5312 19.8184 17.0547 19.8184 17.7773V20.707L18.7051 21.2344H18.6465Z" fill="#040009"/>
<path d="M19.0014 26C20.7411 25.9997 22.4333 25.4323 23.8215 24.3838C25.2098 23.3353 26.2184 21.8628 26.6946 20.1895C27.1707 18.5162 27.0884 16.7333 26.4601 15.111C25.8319 13.4886 24.6919 12.1153 23.2129 11.1992C21.734 10.283 19.9967 9.87393 18.2643 10.0339C16.532 10.1939 14.899 10.9142 13.6129 12.0857C12.3267 13.2573 11.4575 14.8161 11.137 16.526C10.8164 18.236 11.062 20.0038 11.8366 21.5616C11.983 21.8444 12.0211 22.171 11.9438 22.48L11.467 24.2608C11.4198 24.4371 11.4198 24.6227 11.467 24.799C11.5143 24.9753 11.6071 25.1361 11.7362 25.2652C11.8652 25.3942 12.026 25.4871 12.2023 25.5343C12.3786 25.5816 12.5642 25.5816 12.7406 25.5344L14.5214 25.0576C14.8303 24.9802 15.1569 25.0184 15.4398 25.1648C16.5461 25.7156 17.7654 26.0016 19.0014 26Z" stroke="#040009" stroke-width="2"/>
</g>
<defs>
<filter id="filter0_d_1563_65500" x="0" y="0" width="38" height="38" filterUnits="userSpaceOnUse" color-interpolation-filters="sRGB">
<feFlood flood-opacity="0" result="BackgroundImageFix"/>
<feColorMatrix in="SourceAlpha" type="matrix" values="0 0 0 0 0 0 0 0 0 0 0 0 0 0 0 0 0 0 127 0" result="hardAlpha"/>
<feOffset dy="1"/>
<feGaussianBlur stdDeviation="2"/>
<feComposite in2="hardAlpha" operator="out"/>
<feColorMatrix type="matrix" values="0 0 0 0 0 0 0 0 0 0 0 0 0 0 0 0 0 0 0.25 0"/>
<feBlend mode="normal" in2="BackgroundImageFix" result="effect1_dropShadow_1563_65500"/>
<feBlend mode="normal" in="SourceGraphic" in2="effect1_dropShadow_1563_65500" result="shape"/>
</filter>
</defs>
</svg>
