<svg width="176" height="48" viewBox="0 0 176 48" fill="none" xmlns="http://www.w3.org/2000/svg">
<g filter="url(#filter0_d_764_12093)">
<path d="M2 12C2 5.37258 7.37258 0 14 0H162C168.627 0 174 5.37258 174 12V32C174 38.6274 168.627 44 162 44H14C7.37258 44 2 38.6274 2 32V12Z" fill="#FEFEFE" shape-rendering="crispEdges"/>
<rect x="6" width="42" height="44" rx="12" fill="#E2E200"/>
<path d="M28.32 29.3C27.28 29.3 26.3467 29.14 25.52 28.82C24.6933 28.5 23.9933 28.0333 23.42 27.42C22.8467 26.7933 22.4067 26.0333 22.1 25.14C21.7933 24.2467 21.64 23.22 21.64 22.06C21.64 20.9 21.8133 19.8733 22.16 18.98C22.52 18.0867 23.0067 17.3333 23.62 16.72C24.2333 16.0933 24.9533 15.62 25.78 15.3C26.6067 14.98 27.4933 14.82 28.44 14.82C29.0133 14.82 29.5333 14.8667 30 14.96C30.4667 15.04 30.8733 15.1333 31.22 15.24C31.5667 15.3467 31.8533 15.46 32.08 15.58C32.3067 15.7 32.4667 15.7867 32.56 15.84L31.82 17.9C31.5 17.7 31.04 17.5133 30.44 17.34C29.8533 17.1533 29.2133 17.06 28.52 17.06C27.92 17.06 27.36 17.1667 26.84 17.38C26.32 17.58 25.8667 17.8867 25.48 18.3C25.1067 18.7133 24.8133 19.2333 24.6 19.86C24.3867 20.4867 24.28 21.2133 24.28 22.04C24.28 22.7733 24.36 23.4467 24.52 24.06C24.6933 24.6733 24.9533 25.2067 25.3 25.66C25.6467 26.1 26.0867 26.4467 26.62 26.7C27.1533 26.94 27.7933 27.06 28.54 27.06C29.4333 27.06 30.16 26.9733 30.72 26.8C31.28 26.6133 31.7133 26.44 32.02 26.28L32.7 28.34C32.54 28.4467 32.32 28.5533 32.04 28.66C31.7733 28.7667 31.4533 28.8733 31.08 28.98C30.7067 29.0733 30.2867 29.1467 29.82 29.2C29.3533 29.2667 28.8533 29.3 28.32 29.3Z" fill="#0E0E0F"/>
<path d="M60.14 17.04C58.7133 17.04 57.62 17.4867 56.86 18.38C56.1133 19.26 55.74 20.4867 55.74 22.06C55.74 22.8067 55.8267 23.4933 56 24.12C56.1867 24.7333 56.4533 25.26 56.8 25.7C57.16 26.14 57.6 26.4867 58.12 26.74C58.6533 26.98 59.2733 27.1 59.98 27.1C60.42 27.1 60.8 27.0867 61.12 27.06C61.44 27.02 61.6933 26.9733 61.88 26.92V21.94H64.4V28.6C64.0533 28.7333 63.4667 28.88 62.64 29.04C61.8133 29.2 60.86 29.28 59.78 29.28C58.78 29.28 57.8667 29.12 57.04 28.8C56.2133 28.48 55.5067 28.0133 54.92 27.4C54.3467 26.7867 53.9 26.0333 53.58 25.14C53.26 24.2467 53.1 23.22 53.1 22.06C53.1 20.9 53.2733 19.8733 53.62 18.98C53.98 18.0867 54.4667 17.3333 55.08 16.72C55.6933 16.0933 56.4133 15.62 57.24 15.3C58.0667 14.98 58.9467 14.82 59.88 14.82C60.52 14.82 61.0867 14.8667 61.58 14.96C62.0867 15.04 62.52 15.1333 62.88 15.24C63.24 15.3467 63.5333 15.46 63.76 15.58C64 15.7 64.1667 15.7867 64.26 15.84L63.5 17.9C63.1 17.66 62.6 17.46 62 17.3C61.4133 17.1267 60.7933 17.04 60.14 17.04ZM73.1523 20.72C72.9523 20.6533 72.6723 20.5867 72.3123 20.52C71.9657 20.44 71.559 20.4 71.0923 20.4C70.8257 20.4 70.539 20.4267 70.2323 20.48C69.939 20.5333 69.7323 20.58 69.6123 20.62V29H67.1923V19.04C67.659 18.8667 68.239 18.7067 68.9323 18.56C69.639 18.4 70.419 18.32 71.2723 18.32C71.4323 18.32 71.619 18.3333 71.8323 18.36C72.0457 18.3733 72.259 18.4 72.4723 18.44C72.6857 18.4667 72.8923 18.5067 73.0923 18.56C73.2923 18.6 73.4523 18.64 73.5723 18.68L73.1523 20.72ZM78.9388 27.3C79.6854 27.3 80.2521 27.26 80.6388 27.18V24.5C80.5054 24.46 80.3121 24.42 80.0588 24.38C79.8054 24.34 79.5254 24.32 79.2188 24.32C78.9521 24.32 78.6788 24.34 78.3988 24.38C78.1321 24.42 77.8854 24.4933 77.6588 24.6C77.4454 24.7067 77.2721 24.86 77.1388 25.06C77.0054 25.2467 76.9388 25.4867 76.9388 25.78C76.9388 26.3533 77.1188 26.7533 77.4788 26.98C77.8388 27.1933 78.3254 27.3 78.9388 27.3ZM78.7388 18.28C79.5388 18.28 80.2121 18.38 80.7588 18.58C81.3054 18.78 81.7388 19.06 82.0588 19.42C82.3921 19.78 82.6254 20.22 82.7588 20.74C82.9054 21.2467 82.9788 21.8067 82.9788 22.42V28.76C82.6054 28.84 82.0388 28.9333 81.2788 29.04C80.5321 29.16 79.6854 29.22 78.7388 29.22C78.1121 29.22 77.5388 29.16 77.0188 29.04C76.4988 28.92 76.0521 28.7267 75.6788 28.46C75.3188 28.1933 75.0321 27.8467 74.8188 27.42C74.6188 26.9933 74.5188 26.4667 74.5188 25.84C74.5188 25.24 74.6321 24.7333 74.8588 24.32C75.0988 23.9067 75.4188 23.5733 75.8188 23.32C76.2188 23.0533 76.6788 22.8667 77.1988 22.76C77.7321 22.64 78.2854 22.58 78.8587 22.58C79.1254 22.58 79.4054 22.6 79.6988 22.64C79.9921 22.6667 80.3054 22.72 80.6388 22.8V22.4C80.6388 22.12 80.6054 21.8533 80.5388 21.6C80.4721 21.3467 80.3521 21.1267 80.1788 20.94C80.0188 20.74 79.7988 20.5867 79.5188 20.48C79.2521 20.3733 78.9121 20.32 78.4988 20.32C77.9388 20.32 77.4254 20.36 76.9588 20.44C76.4921 20.52 76.1121 20.6133 75.8188 20.72L75.5188 18.76C75.8254 18.6533 76.2721 18.5467 76.8588 18.44C77.4454 18.3333 78.0721 18.28 78.7388 18.28ZM85.3623 23.78C85.3623 23.0067 85.4823 22.2867 85.7223 21.62C85.9623 20.94 86.3023 20.3533 86.7423 19.86C87.1957 19.3667 87.7423 18.98 88.3823 18.7C89.0223 18.42 89.7423 18.28 90.5423 18.28C91.529 18.28 92.4623 18.46 93.3423 18.82L92.8223 20.8C92.5423 20.68 92.2223 20.58 91.8623 20.5C91.5157 20.42 91.1423 20.38 90.7423 20.38C89.7957 20.38 89.0757 20.68 88.5823 21.28C88.089 21.8667 87.8423 22.7 87.8423 23.78C87.8423 24.82 88.0757 25.6467 88.5423 26.26C89.009 26.86 89.7957 27.16 90.9023 27.16C91.3157 27.16 91.7223 27.12 92.1223 27.04C92.5223 26.96 92.869 26.86 93.1623 26.74L93.5023 28.74C93.2357 28.8733 92.829 28.9933 92.2823 29.1C91.749 29.2067 91.1957 29.26 90.6223 29.26C89.729 29.26 88.949 29.1267 88.2823 28.86C87.629 28.58 87.0823 28.2 86.6423 27.72C86.2157 27.2267 85.8957 26.6467 85.6823 25.98C85.469 25.3 85.3623 24.5667 85.3623 23.78ZM94.7959 23.82C94.7959 22.9 94.9293 22.0933 95.1959 21.4C95.4759 20.7067 95.8426 20.1333 96.2959 19.68C96.7493 19.2133 97.2693 18.8667 97.8559 18.64C98.4426 18.4 99.0426 18.28 99.6559 18.28C101.096 18.28 102.216 18.7267 103.016 19.62C103.829 20.5133 104.236 21.8467 104.236 23.62C104.236 23.7533 104.229 23.9067 104.216 24.08C104.216 24.24 104.209 24.3867 104.196 24.52H97.2959C97.3626 25.36 97.6559 26.0133 98.1759 26.48C98.7093 26.9333 99.4759 27.16 100.476 27.16C101.063 27.16 101.596 27.1067 102.076 27C102.569 26.8933 102.956 26.78 103.236 26.66L103.556 28.64C103.423 28.7067 103.236 28.78 102.996 28.86C102.769 28.9267 102.503 28.9867 102.196 29.04C101.903 29.1067 101.583 29.16 101.236 29.2C100.889 29.24 100.536 29.26 100.176 29.26C99.2559 29.26 98.4559 29.1267 97.7759 28.86C97.0959 28.58 96.5359 28.2 96.0959 27.72C95.6559 27.2267 95.3293 26.6533 95.1159 26C94.9026 25.3333 94.7959 24.6067 94.7959 23.82ZM101.816 22.74C101.816 22.4067 101.769 22.0933 101.676 21.8C101.583 21.4933 101.443 21.2333 101.256 21.02C101.083 20.7933 100.863 20.62 100.596 20.5C100.343 20.3667 100.036 20.3 99.6759 20.3C99.3026 20.3 98.9759 20.3733 98.6959 20.52C98.4159 20.6533 98.1759 20.8333 97.9759 21.06C97.7893 21.2867 97.6426 21.5467 97.5359 21.84C97.4293 22.1333 97.3559 22.4333 97.3159 22.74H101.816ZM109.482 29C108.815 27.6267 108.128 26.0533 107.422 24.28C106.728 22.4933 106.095 20.58 105.522 18.54H108.102C108.248 19.1267 108.415 19.76 108.602 20.44C108.802 21.1067 109.008 21.78 109.222 22.46C109.448 23.1267 109.675 23.78 109.902 24.42C110.142 25.0467 110.362 25.6133 110.562 26.12C110.762 25.6133 110.975 25.0467 111.202 24.42C111.428 23.78 111.648 23.1267 111.862 22.46C112.088 21.78 112.302 21.1067 112.502 20.44C112.702 19.76 112.875 19.1267 113.022 18.54H115.522C114.948 20.58 114.308 22.4933 113.602 24.28C112.908 26.0533 112.228 27.6267 111.562 29H109.482ZM119.769 29H117.349V18.54H119.769V29ZM120.029 15.48C120.029 15.9333 119.882 16.2933 119.589 16.56C119.296 16.8267 118.949 16.96 118.549 16.96C118.136 16.96 117.782 16.8267 117.489 16.56C117.196 16.2933 117.049 15.9333 117.049 15.48C117.049 15.0133 117.196 14.6467 117.489 14.38C117.782 14.1133 118.136 13.98 118.549 13.98C118.949 13.98 119.296 14.1133 119.589 14.38C119.882 14.6467 120.029 15.0133 120.029 15.48ZM126.496 29.2C125.776 29.1867 125.176 29.1067 124.696 28.96C124.23 28.8133 123.856 28.6067 123.576 28.34C123.296 28.06 123.096 27.72 122.976 27.32C122.87 26.9067 122.816 26.44 122.816 25.92V13.88L125.236 13.48V25.46C125.236 25.7533 125.256 26 125.296 26.2C125.35 26.4 125.436 26.5733 125.556 26.72C125.676 26.8533 125.836 26.96 126.036 27.04C126.25 27.1067 126.516 27.16 126.836 27.2L126.496 29.2ZM132.434 29.2C131.714 29.1867 131.114 29.1067 130.634 28.96C130.167 28.8133 129.794 28.6067 129.514 28.34C129.234 28.06 129.034 27.72 128.914 27.32C128.807 26.9067 128.754 26.44 128.754 25.92V13.88L131.174 13.48V25.46C131.174 25.7533 131.194 26 131.234 26.2C131.287 26.4 131.374 26.5733 131.494 26.72C131.614 26.8533 131.774 26.96 131.974 27.04C132.187 27.1067 132.454 27.16 132.774 27.2L132.434 29.2ZM134.151 23.82C134.151 22.9 134.285 22.0933 134.551 21.4C134.831 20.7067 135.198 20.1333 135.651 19.68C136.105 19.2133 136.625 18.8667 137.211 18.64C137.798 18.4 138.398 18.28 139.011 18.28C140.451 18.28 141.571 18.7267 142.371 19.62C143.185 20.5133 143.591 21.8467 143.591 23.62C143.591 23.7533 143.585 23.9067 143.571 24.08C143.571 24.24 143.565 24.3867 143.551 24.52H136.651C136.718 25.36 137.011 26.0133 137.531 26.48C138.065 26.9333 138.831 27.16 139.831 27.16C140.418 27.16 140.951 27.1067 141.431 27C141.925 26.8933 142.311 26.78 142.591 26.66L142.911 28.64C142.778 28.7067 142.591 28.78 142.351 28.86C142.125 28.9267 141.858 28.9867 141.551 29.04C141.258 29.1067 140.938 29.16 140.591 29.2C140.245 29.24 139.891 29.26 139.531 29.26C138.611 29.26 137.811 29.1267 137.131 28.86C136.451 28.58 135.891 28.2 135.451 27.72C135.011 27.2267 134.685 26.6533 134.471 26C134.258 25.3333 134.151 24.6067 134.151 23.82ZM141.171 22.74C141.171 22.4067 141.125 22.0933 141.031 21.8C140.938 21.4933 140.798 21.2333 140.611 21.02C140.438 20.7933 140.218 20.62 139.951 20.5C139.698 20.3667 139.391 20.3 139.031 20.3C138.658 20.3 138.331 20.3733 138.051 20.52C137.771 20.6533 137.531 20.8333 137.331 21.06C137.145 21.2867 136.998 21.5467 136.891 21.84C136.785 22.1333 136.711 22.4333 136.671 22.74H141.171ZM152.437 29.3C151.397 29.3 150.464 29.14 149.637 28.82C148.811 28.5 148.111 28.0333 147.537 27.42C146.964 26.7933 146.524 26.0333 146.217 25.14C145.911 24.2467 145.757 23.22 145.757 22.06C145.757 20.9 145.931 19.8733 146.277 18.98C146.637 18.0867 147.124 17.3333 147.737 16.72C148.351 16.0933 149.071 15.62 149.897 15.3C150.724 14.98 151.611 14.82 152.557 14.82C153.131 14.82 153.651 14.8667 154.117 14.96C154.584 15.04 154.991 15.1333 155.337 15.24C155.684 15.3467 155.971 15.46 156.197 15.58C156.424 15.7 156.584 15.7867 156.677 15.84L155.937 17.9C155.617 17.7 155.157 17.5133 154.557 17.34C153.971 17.1533 153.331 17.06 152.637 17.06C152.037 17.06 151.477 17.1667 150.957 17.38C150.437 17.58 149.984 17.8867 149.597 18.3C149.224 18.7133 148.931 19.2333 148.717 19.86C148.504 20.4867 148.397 21.2133 148.397 22.04C148.397 22.7733 148.477 23.4467 148.637 24.06C148.811 24.6733 149.071 25.2067 149.417 25.66C149.764 26.1 150.204 26.4467 150.737 26.7C151.271 26.94 151.911 27.06 152.657 27.06C153.551 27.06 154.277 26.9733 154.837 26.8C155.397 26.6133 155.831 26.44 156.137 26.28L156.817 28.34C156.657 28.4467 156.437 28.5533 156.157 28.66C155.891 28.7667 155.571 28.8733 155.197 28.98C154.824 29.0733 154.404 29.1467 153.937 29.2C153.471 29.2667 152.971 29.3 152.437 29.3ZM164.84 29.3C163.8 29.3 162.866 29.14 162.04 28.82C161.213 28.5 160.513 28.0333 159.94 27.42C159.366 26.7933 158.926 26.0333 158.62 25.14C158.313 24.2467 158.16 23.22 158.16 22.06C158.16 20.9 158.333 19.8733 158.68 18.98C159.04 18.0867 159.526 17.3333 160.14 16.72C160.753 16.0933 161.473 15.62 162.3 15.3C163.126 14.98 164.013 14.82 164.96 14.82C165.533 14.82 166.053 14.8667 166.52 14.96C166.986 15.04 167.393 15.1333 167.74 15.24C168.086 15.3467 168.373 15.46 168.6 15.58C168.826 15.7 168.986 15.7867 169.08 15.84L168.34 17.9C168.02 17.7 167.56 17.5133 166.96 17.34C166.373 17.1533 165.733 17.06 165.04 17.06C164.44 17.06 163.88 17.1667 163.36 17.38C162.84 17.58 162.386 17.8867 162 18.3C161.626 18.7133 161.333 19.2333 161.12 19.86C160.906 20.4867 160.8 21.2133 160.8 22.04C160.8 22.7733 160.88 23.4467 161.04 24.06C161.213 24.6733 161.473 25.2067 161.82 25.66C162.166 26.1 162.606 26.4467 163.14 26.7C163.673 26.94 164.313 27.06 165.06 27.06C165.953 27.06 166.68 26.9733 167.24 26.8C167.8 26.6133 168.233 26.44 168.54 26.28L169.22 28.34C169.06 28.4467 168.84 28.5533 168.56 28.66C168.293 28.7667 167.973 28.8733 167.6 28.98C167.226 29.0733 166.806 29.1467 166.34 29.2C165.873 29.2667 165.373 29.3 164.84 29.3Z" fill="#0E0E0F"/>
</g>
<defs>
<filter id="filter0_d_764_12093" x="0" y="0" width="176" height="48" filterUnits="userSpaceOnUse" color-interpolation-filters="sRGB">
<feFlood flood-opacity="0" result="BackgroundImageFix"/>
<feColorMatrix in="SourceAlpha" type="matrix" values="0 0 0 0 0 0 0 0 0 0 0 0 0 0 0 0 0 0 127 0" result="hardAlpha"/>
<feOffset dy="2"/>
<feGaussianBlur stdDeviation="1"/>
<feComposite in2="hardAlpha" operator="out"/>
<feColorMatrix type="matrix" values="0 0 0 0 0 0 0 0 0 0 0 0 0 0 0 0 0 0 0.04 0"/>
<feBlend mode="normal" in2="BackgroundImageFix" result="effect1_dropShadow_764_12093"/>
<feBlend mode="normal" in="SourceGraphic" in2="effect1_dropShadow_764_12093" result="shape"/>
</filter>
</defs>
</svg>
