<svg width="21" height="25" viewBox="0 0 21 25" fill="none" xmlns="http://www.w3.org/2000/svg">
<path opacity="0.996" fill-rule="evenodd" clip-rule="evenodd" d="M1.78182 0.00337542C7.32528 -0.00562547 12.8687 0.00337542 18.4121 0.0303727C19.3451 0.207372 19.93 0.756313 20.167 1.67721C20.203 8.62452 20.203 15.5718 20.167 22.5191C19.8493 23.7171 19.0664 24.2661 17.8182 24.1659C17.426 24.1048 17.084 23.9428 16.7923 23.68C16.4606 23.4575 16.1186 23.4395 15.7664 23.626C15.4802 23.8582 15.2102 24.1101 14.9565 24.3819C13.7677 25.206 12.5798 25.206 11.3929 24.3819C11.1571 24.1281 10.9051 23.8941 10.6369 23.68C10.2769 23.428 9.91702 23.428 9.55704 23.68C9.13204 24.1584 8.62811 24.5363 8.04519 24.8139C7.18641 25.106 6.35845 25.0339 5.56144 24.5979C5.14746 24.2559 4.73354 23.9139 4.31956 23.572C4.08458 23.4725 3.85062 23.4725 3.61764 23.572C3.35663 23.7476 3.08665 23.9096 2.80772 24.0579C1.87053 24.3638 1.06963 24.1569 0.40496 23.437C0.220213 23.1754 0.0942218 22.8874 0.0269986 22.5731C-0.00899954 15.6078 -0.00899954 8.6425 0.0269986 1.67721C0.272361 0.756783 0.8573 0.198841 1.78182 0.00337542Z" fill="#FE6A77"/>
</svg>
