<svg width="19" height="18" viewBox="0 0 19 18" fill="none" xmlns="http://www.w3.org/2000/svg">
<path d="M9.36035 12.2344V8.77734C9.36035 8.0625 9.28027 7.53906 9.12012 7.20703C8.87012 6.69141 8.51855 6.43359 8.06543 6.43359C7.62402 6.43359 7.27246 6.69141 7.01074 7.20703C6.84668 7.53906 6.76465 8.0625 6.76465 8.77734C6.76465 9.41797 6.84668 9.94141 7.01074 10.3477C7.21777 10.8555 7.55762 11.1934 8.03027 11.3613L7.59082 12.2344H7.53223C6.86035 11.9688 6.35449 11.4785 6.01465 10.7637C5.7334 10.1738 5.59277 9.51172 5.59277 8.77734C5.59277 7.97266 5.7334 7.31055 6.01465 6.79102C6.50684 5.88867 7.19043 5.4375 8.06543 5.4375C8.84277 5.4375 9.46973 5.79688 9.94629 6.51562C10.4229 5.79688 11.0498 5.4375 11.8271 5.4375C12.7021 5.4375 13.3857 5.88867 13.8779 6.79102C14.1592 7.31055 14.2998 7.97266 14.2998 8.77734C14.2998 9.52734 14.1592 10.1895 13.8779 10.7637C13.5381 11.4785 13.0322 11.9688 12.3604 12.2344H12.3018L11.8623 11.3613C12.335 11.1934 12.6748 10.8555 12.8818 10.3477C13.0459 9.94141 13.1279 9.41797 13.1279 8.77734C13.1279 8.0625 13.0459 7.53906 12.8818 7.20703C12.624 6.69141 12.2725 6.43359 11.8271 6.43359C11.3818 6.43359 11.0303 6.69141 10.7725 7.20703C10.6123 7.53125 10.5322 8.05469 10.5322 8.77734V11.707L9.41895 12.2344H9.36035Z" fill="#FEFEFE"/>
<path d="M9.71522 17C11.4549 16.9997 13.1472 16.4323 14.5354 15.3838C15.9237 14.3353 16.9323 12.8628 17.4084 11.1895C17.8846 9.51619 17.8023 7.73328 17.174 6.11097C16.5457 4.48865 15.4057 3.11535 13.9268 2.19918C12.4479 1.28302 10.7106 0.873925 8.97821 1.0339C7.24586 1.19388 5.61288 1.91422 4.32673 3.08573C3.04058 4.25725 2.17137 5.8161 1.85083 7.52603C1.5303 9.23597 1.7759 11.0038 2.55043 12.5616C2.69685 12.8444 2.73497 13.171 2.65763 13.48L2.18083 15.2608C2.13362 15.4371 2.13364 15.6227 2.1809 15.799C2.22816 15.9753 2.32098 16.1361 2.45005 16.2652C2.57911 16.3942 2.73987 16.4871 2.91617 16.5343C3.09248 16.5816 3.27811 16.5816 3.45443 16.5344L5.23522 16.0576C5.54419 15.9802 5.87077 16.0184 6.15362 16.1648C7.25998 16.7156 8.47932 17.0016 9.71522 17Z" stroke="#FEFEFE" stroke-width="2"/>
</svg>
