<svg width="18" height="18" viewBox="0 0 18 18" fill="none" xmlns="http://www.w3.org/2000/svg">
<path d="M8.64648 12.2344V8.77734C8.64648 8.0625 8.56641 7.53906 8.40625 7.20703C8.15625 6.69141 7.80469 6.43359 7.35156 6.43359C6.91016 6.43359 6.55859 6.69141 6.29688 7.20703C6.13281 7.53906 6.05078 8.0625 6.05078 8.77734C6.05078 9.41797 6.13281 9.94141 6.29688 10.3477C6.50391 10.8555 6.84375 11.1934 7.31641 11.3613L6.87695 12.2344H6.81836C6.14648 11.9688 5.64062 11.4785 5.30078 10.7637C5.01953 10.1738 4.87891 9.51172 4.87891 8.77734C4.87891 7.97266 5.01953 7.31055 5.30078 6.79102C5.79297 5.88867 6.47656 5.4375 7.35156 5.4375C8.12891 5.4375 8.75586 5.79688 9.23242 6.51562C9.70898 5.79688 10.3359 5.4375 11.1133 5.4375C11.9883 5.4375 12.6719 5.88867 13.1641 6.79102C13.4453 7.31055 13.5859 7.97266 13.5859 8.77734C13.5859 9.52734 13.4453 10.1895 13.1641 10.7637C12.8242 11.4785 12.3184 11.9688 11.6465 12.2344H11.5879L11.1484 11.3613C11.6211 11.1934 11.9609 10.8555 12.168 10.3477C12.332 9.94141 12.4141 9.41797 12.4141 8.77734C12.4141 8.0625 12.332 7.53906 12.168 7.20703C11.9102 6.69141 11.5586 6.43359 11.1133 6.43359C10.668 6.43359 10.3164 6.69141 10.0586 7.20703C9.89844 7.53125 9.81836 8.05469 9.81836 8.77734V11.707L8.70508 12.2344H8.64648Z" fill="#040009"/>
<path d="M9.00135 17C10.7411 16.9997 12.4333 16.4323 13.8215 15.3838C15.2098 14.3353 16.2184 12.8628 16.6946 11.1895C17.1707 9.51619 17.0884 7.73328 16.4601 6.11097C15.8319 4.48865 14.6919 3.11535 13.2129 2.19918C11.734 1.28302 9.9967 0.873925 8.26435 1.0339C6.53199 1.19388 4.89901 1.91422 3.61286 3.08573C2.32671 4.25725 1.4575 5.8161 1.13697 7.52603C0.81643 9.23597 1.06203 11.0038 1.83656 12.5616C1.98299 12.8444 2.0211 13.171 1.94376 13.48L1.46696 15.2608C1.41975 15.4371 1.41978 15.6227 1.46703 15.799C1.51429 15.9753 1.60711 16.1361 1.73618 16.2652C1.86524 16.3942 2.02601 16.4871 2.20231 16.5343C2.37861 16.5816 2.56424 16.5816 2.74056 16.5344L4.52136 16.0576C4.83033 15.9802 5.15691 16.0184 5.43976 16.1648C6.54612 16.7156 7.76545 17.0016 9.00135 17Z" stroke="#040009" stroke-width="2"/>
</svg>
