<svg width="24" height="24" viewBox="0 0 24 24" fill="none" xmlns="http://www.w3.org/2000/svg">
<path d="M11.1563 7.73688L12 9.06263L12.8437 7.73688C13.7092 6.3768 15.2401 5.5 17 5.5C19.7477 5.5 22 7.75228 22 10.5C22 11.6991 21.4451 12.9919 20.4748 14.3149C19.5123 15.6275 18.207 16.8795 16.8668 17.976C15.5314 19.0686 14.1911 19.9828 13.1819 20.6251C12.6974 20.9334 12.2914 21.1776 12.0019 21.3473C11.7121 21.1763 11.3056 20.9301 10.8204 20.6195C9.81085 19.9732 8.47008 19.0541 7.13429 17.9582C5.79354 16.8581 4.48771 15.6042 3.52468 14.2932C2.55346 12.971 2 11.685 2 10.5C2 7.75228 4.25228 5.5 7 5.5C8.75986 5.5 10.2908 6.3768 11.1563 7.73688Z" stroke="#040009" stroke-width="2"/>
</svg>
