<svg width="25" height="24" viewBox="0 0 25 24" fill="none" xmlns="http://www.w3.org/2000/svg">
<path d="M9 9.33333L10.3147 9.11467C10.3464 9.30559 10.3362 9.50114 10.2848 9.68772C10.2333 9.87431 10.1419 10.0475 10.0168 10.1951C9.89167 10.3428 9.73592 10.4615 9.56034 10.5429C9.38475 10.6244 9.19355 10.6666 9 10.6667L9 9.33333ZM23.6667 9.33333V8C24.0203 8 24.3594 8.14048 24.6095 8.39053C24.8595 8.64057 25 8.97971 25 9.33333H23.6667ZM21 24L5.85333 24V21.3333L21 21.3333V24ZM4.25333 8H9L9 10.6667H4.25333L4.25333 8ZM7.684 9.552L6.61067 3.10533L9.24 2.66667L10.3147 9.11467L7.684 9.552ZM9.24 0L9.52533 0V2.66667H9.24V0ZM13.964 2.37467L17.316 7.40667L15.0973 8.88667L11.7427 3.85467L13.964 2.37467ZM18.4267 8L23.6667 8V10.6667L18.4267 10.6667V8ZM25 9.33333L25 20H22.3333L22.3333 9.33333H25ZM1.93067 20.784L0.330663 12.784L2.944 12.2613L4.544 20.2613L1.93067 20.784ZM17.316 7.40667C17.4378 7.58922 17.6041 7.73889 17.7976 7.84239C17.9911 7.9459 18.2072 8.00003 18.4267 8V10.6667C17.7682 10.6666 17.1199 10.504 16.5393 10.1933C15.9588 9.88251 15.4639 9.43325 15.0987 8.88533L17.316 7.40667ZM6.61067 3.10533C6.54697 2.72338 6.56721 2.33214 6.67 1.95881C6.77279 1.58548 6.95565 1.23901 7.20587 0.943488C7.45609 0.647968 7.76767 0.410487 8.11895 0.247554C8.47023 0.0846217 8.85277 0.000146011 9.24 0V2.66667L6.61067 3.10533ZM4.25333 10.6667C4.05603 10.6666 3.86117 10.7103 3.68281 10.7946C3.50445 10.879 3.34703 11.0019 3.2219 11.1544C3.09677 11.307 3.00706 11.4854 2.95924 11.6768C2.91141 11.8682 2.90533 12.0679 2.944 12.2613L0.330663 12.784C0.214695 12.2038 0.228885 11.6051 0.372213 11.031C0.515541 10.457 0.784437 9.92188 1.15952 9.46428C1.5346 9.00668 2.00653 8.638 2.54129 8.38479C3.07605 8.13158 3.66032 8.00016 4.252 8L4.25333 10.6667ZM5.85333 24C4.9285 24.0001 4.03223 23.6796 3.31704 23.0933C2.60185 22.5069 2.11193 21.6909 1.93067 20.784L4.544 20.2613C4.60448 20.5639 4.76805 20.8362 5.00681 21.0317C5.24558 21.2272 5.54475 21.3338 5.85333 21.3333V24ZM9.52533 0C10.4033 1.50039e-05 11.2676 0.216766 12.0417 0.631015C12.8158 1.04526 13.477 1.6442 13.964 2.37467L11.7427 3.85467C11.4992 3.48931 11.1707 3.18971 10.7836 2.98247C10.3966 2.77522 9.96437 2.66675 9.52533 2.66667V0ZM21 21.3333C21.3536 21.3333 21.6928 21.1929 21.9428 20.9428C22.1929 20.6928 22.3333 20.3536 22.3333 20H25C25 21.0609 24.5786 22.0783 23.8284 22.8284C23.0783 23.5786 22.0609 24 21 24V21.3333Z" fill="black"/>
<path d="M18.3333 9.33337L18.3333 22.6667" stroke="black" stroke-width="2.66667"/>
</svg>
