<svg width="51" height="28" viewBox="0 0 51 28" fill="none" xmlns="http://www.w3.org/2000/svg">
  <path
    d="M26.3673 22.9225C25.9146 22.4103 25.0853 22.4103 24.6327 22.9225C22.1054 25.7826 18.4099 27.5861 14.2931 27.5861C6.67538 27.5861 0.5 21.4108 0.5 13.793C0.5 6.17532 6.67538 -6.10352e-05 14.2931 -6.10352e-05C18.4099 -6.10352e-05 22.1054 1.80349 24.6327 4.66357C25.0853 5.17581 25.9146 5.17581 26.3673 4.66357C28.8945 1.80349 32.5901 -6.10352e-05 36.7068 -6.10352e-05C44.3246 -6.10352e-05 50.4999 6.17532 50.4999 13.793C50.4999 21.4108 44.3246 27.5861 36.7068 27.5861C32.5901 27.5861 28.8945 25.7826 26.3673 22.9225Z"
    fill="#30084F" />
  <circle cx="14.5625" cy="14.0625" r="7.8125" fill="#FAFAFA" />
  <circle cx="36.4375" cy="14.0625" r="7.8125" fill="#FAFAFA" />
</svg>