<svg width="80" height="80" viewBox="0 0 80 80" fill="none" xmlns="http://www.w3.org/2000/svg">
<rect width="80" height="80" rx="16" fill="#310A50"/>
<path d="M40.8673 48.8425C40.4146 48.3303 39.5853 48.3303 39.1327 48.8425C36.6054 51.7026 32.9099 53.5061 28.7931 53.5061C21.1754 53.5061 15 47.3307 15 39.713C15 32.0953 21.1754 25.9199 28.7931 25.9199C32.9099 25.9199 36.6054 27.7235 39.1327 30.5836C39.5853 31.0958 40.4146 31.0958 40.8673 30.5836C43.3945 27.7235 47.0901 25.9199 51.2068 25.9199C58.8246 25.9199 64.9999 32.0953 64.9999 39.713C64.9999 47.3307 58.8246 53.5061 51.2068 53.5061C47.0901 53.5061 43.3945 51.7026 40.8673 48.8425Z" fill="white"/>
<circle cx="29.0625" cy="39.9824" r="7.8125" fill="#310A50"/>
<circle cx="50.9375" cy="39.9824" r="7.8125" fill="#310A50"/>
</svg>
