<svg width="70" height="70" viewBox="0 0 70 70" fill="none" xmlns="http://www.w3.org/2000/svg">
<rect width="70" height="70" rx="12" fill="#310A50"/>
<path d="M51.625 34.6142C54.5935 34.6142 57.0784 37.0888 56.0711 39.8812C55.0532 42.7029 53.2232 45.2994 50.7028 47.4228C46.6708 50.8199 41.2022 52.7283 35.5 52.7283C29.7978 52.7283 24.3292 50.8199 20.2972 47.4228C17.7768 45.2994 15.9468 42.7029 14.9289 39.8812C13.9216 37.0888 16.4065 34.6142 19.375 34.6142V34.6142C22.3435 34.6142 24.6898 37.2456 26.515 39.5867C26.9141 40.0987 27.3768 40.5789 27.8986 41.0185C29.9146 42.717 32.6489 43.6713 35.5 43.6713C38.3511 43.6713 41.0854 42.717 43.1014 41.0185C43.6232 40.5789 44.0859 40.0987 44.485 39.5867C46.3102 37.2456 48.6565 34.6142 51.625 34.6142V34.6142Z" fill="white"/>
<ellipse cx="51.9205" cy="22.6504" rx="5.07874" ry="5.24803" fill="white"/>
<ellipse cx="19.0787" cy="22.6504" rx="5.07874" ry="5.24803" fill="white"/>
</svg>
