<svg width="24" height="24" viewBox="0 0 24 24" fill="none" xmlns="http://www.w3.org/2000/svg">
<path d="M12.002 24C14.6116 23.9995 17.1499 23.1485 19.2323 21.5757C21.3147 20.0029 22.8276 17.7942 23.5418 15.2842C24.256 12.7743 24.1326 10.0999 23.1902 7.66645C22.2478 5.23297 20.5378 3.17302 18.3194 1.79877C16.101 0.424523 13.495 -0.189112 10.8965 0.0508574C8.29799 0.290827 5.84851 1.37132 3.91929 3.1286C1.99006 4.88588 0.686256 7.22414 0.205451 9.78905C-0.275355 12.354 0.0930521 15.0057 1.25484 17.3424C1.47448 17.7667 1.53166 18.2565 1.41564 18.72L0.700439 21.3912C0.629626 21.6557 0.629663 21.9341 0.700549 22.1986C0.771435 22.463 0.910671 22.7042 1.10427 22.8978C1.29787 23.0914 1.53901 23.2306 1.80346 23.3015C2.06791 23.3724 2.34636 23.3724 2.61084 23.3016L5.28203 22.5864C5.74549 22.4704 6.23536 22.5276 6.65963 22.7472C8.31917 23.5735 10.1482 24.0024 12.002 24Z" fill="#1EF7E6"/>
<path d="M10.7441 17.3906V11.6289C10.7441 10.4375 10.6107 9.5651 10.3438 9.01172C9.92708 8.15234 9.34115 7.72266 8.58594 7.72266C7.85026 7.72266 7.26432 8.15234 6.82812 9.01172C6.55469 9.5651 6.41797 10.4375 6.41797 11.6289C6.41797 12.6966 6.55469 13.569 6.82812 14.2461C7.17318 15.0924 7.73958 15.6556 8.52734 15.9355L7.79492 17.3906H7.69727C6.57747 16.9479 5.73438 16.1309 5.16797 14.9395C4.69922 13.9564 4.46484 12.8529 4.46484 11.6289C4.46484 10.2878 4.69922 9.18424 5.16797 8.31836C5.98828 6.81445 7.1276 6.0625 8.58594 6.0625C9.88151 6.0625 10.9264 6.66146 11.7207 7.85938C12.515 6.66146 13.5599 6.0625 14.8555 6.0625C16.3138 6.0625 17.4531 6.81445 18.2734 8.31836C18.7422 9.18424 18.9766 10.2878 18.9766 11.6289C18.9766 12.8789 18.7422 13.9824 18.2734 14.9395C17.707 16.1309 16.8639 16.9479 15.7441 17.3906H15.6465L14.9141 15.9355C15.7018 15.6556 16.2682 15.0924 16.6133 14.2461C16.8867 13.569 17.0234 12.6966 17.0234 11.6289C17.0234 10.4375 16.8867 9.5651 16.6133 9.01172C16.1836 8.15234 15.5977 7.72266 14.8555 7.72266C14.1133 7.72266 13.5273 8.15234 13.0977 9.01172C12.8307 9.55208 12.6973 10.4245 12.6973 11.6289V16.5117L10.8418 17.3906H10.7441Z" fill="#FEFEFE"/>
</svg>
