<svg width="211" height="158" viewBox="0 0 211 158" fill="none" xmlns="http://www.w3.org/2000/svg">
<path d="M210.841 138.059H0V138.164H210.841V138.059Z" fill="#EBEBEB"/>
<path d="M135.579 143.938H121.613V144.043H135.579V143.938Z" fill="#EBEBEB"/>
<path d="M175.323 142.795H171.658V142.9H175.323V142.795Z" fill="#EBEBEB"/>
<path d="M167.234 140.93H138.172V141.035H167.234V140.93Z" fill="#EBEBEB"/>
<path d="M94.9371 143.418H82.1602V143.523H94.9371V143.418Z" fill="#EBEBEB"/>
<path d="M78.4075 143.418H70.3027V143.523H78.4075V143.418Z" fill="#EBEBEB"/>
<path d="M41.8727 141.639H22.1211V141.744H41.8727V141.639Z" fill="#EBEBEB"/>
<path d="M99.9396 119.252H18.5169C17.879 119.251 17.2677 118.997 16.817 118.545C16.3664 118.094 16.1133 117.482 16.1133 116.844V2.38672C16.1188 1.75252 16.3744 1.14612 16.8244 0.699242C17.2745 0.252359 17.8826 0.00108642 18.5169 0H99.9396C100.578 0 101.191 0.253679 101.642 0.705231C102.094 1.15678 102.347 1.76922 102.347 2.40781V116.844C102.347 117.483 102.094 118.095 101.642 118.547C101.191 118.998 100.578 119.252 99.9396 119.252ZM18.5169 0.0843369C17.907 0.0854539 17.3224 0.328518 16.8916 0.760179C16.4607 1.19184 16.2187 1.77682 16.2187 2.38672V116.844C16.2187 117.454 16.4607 118.039 16.8916 118.471C17.3224 118.902 17.907 119.145 18.5169 119.146H99.9396C100.55 119.145 101.135 118.902 101.566 118.471C101.998 118.039 102.241 117.454 102.242 116.844V2.38672C102.241 1.77644 101.998 1.19146 101.566 0.759921C101.135 0.328381 100.55 0.0854515 99.9396 0.0843369H18.5169Z" fill="#EBEBEB"/>
<path d="M191.153 119.252H109.726C109.088 119.251 108.476 118.997 108.025 118.545C107.574 118.094 107.319 117.482 107.318 116.844V2.38672C107.325 1.75214 107.582 1.14574 108.032 0.698978C108.483 0.252212 109.092 0.00107457 109.726 0H191.153C191.787 0.00219465 192.394 0.253958 192.843 0.700722C193.292 1.14749 193.547 1.75325 193.552 2.38672V116.844C193.552 117.481 193.3 118.092 192.85 118.544C192.4 118.995 191.79 119.25 191.153 119.252ZM109.726 0.0843369C109.116 0.0854515 108.531 0.328381 108.099 0.759921C107.668 1.19146 107.425 1.77644 107.424 2.38672V116.844C107.425 117.454 107.668 118.039 108.099 118.471C108.531 118.902 109.116 119.145 109.726 119.146H191.153C191.763 119.145 192.348 118.902 192.78 118.471C193.211 118.039 193.454 117.454 193.455 116.844V2.38672C193.454 1.77644 193.211 1.19146 192.78 0.759921C192.348 0.328381 191.763 0.0854515 191.153 0.0843369H109.726Z" fill="#EBEBEB"/>
<path d="M24.1799 75.7969L95.9883 75.7969L95.9883 9.68547L24.1799 9.68547L24.1799 75.7969Z" fill="#E6E6E6"/>
<path d="M22.4721 75.7969L95.2461 75.7969L95.2461 9.68547L22.4721 9.68547L22.4721 75.7969Z" fill="#F5F5F5"/>
<path d="M92.1875 72.4916V12.9922L25.5321 12.9922V72.4916H92.1875Z" fill="#FAFAFA"/>
<path d="M83.9535 72.4874L61.5369 12.9922H52.0996L74.5163 72.4874H83.9535Z" fill="white"/>
<path d="M71.8383 72.4874L49.4259 12.9922H42.9277L65.3402 72.4874H71.8383Z" fill="white"/>
<path d="M51.748 72.4916L51.748 12.9922H48.0963V72.4916H51.748Z" fill="#E6E6E6"/>
<path d="M72.0703 72.4877V12.9883H68.4185V72.4877H72.0703Z" fill="#E6E6E6"/>
<path d="M51.0918 74.5829L51.0918 10.5293H46.4786V74.5829H51.0918Z" fill="#F5F5F5"/>
<path d="M71.4121 74.5868V10.5332H66.7989V74.5868H71.4121Z" fill="#F5F5F5"/>
<path d="M25.8574 72.4916L25.8574 12.9922H25.5327L25.5327 72.4916H25.8574Z" fill="#E6E6E6"/>
<path d="M168.965 138.054V91.998L31.627 91.998V138.054H168.965Z" fill="#F0F0F0"/>
<path d="M163.381 110.62V95.7603C163.381 95.1268 162.867 94.6133 162.234 94.6133L38.3646 94.6133C37.7312 94.6133 37.2176 95.1268 37.2176 95.7603V110.62C37.2176 111.254 37.7312 111.767 38.3646 111.767H162.234C162.867 111.767 163.381 111.254 163.381 110.62Z" fill="#F5F5F5"/>
<path d="M163.377 134.066V114.846C163.377 114.213 162.863 113.699 162.23 113.699L38.3607 113.699C37.7272 113.699 37.2137 114.213 37.2137 114.846V134.066C37.2137 134.7 37.7272 135.213 38.3607 135.213H162.23C162.863 135.213 163.377 134.7 163.377 134.066Z" fill="#F5F5F5"/>
<path d="M138.123 94.3262H62.4688C62.4688 94.9178 62.7038 95.4852 63.1221 95.9035C63.5404 96.3219 64.1078 96.5569 64.6994 96.5569H135.892C136.484 96.5569 137.051 96.3219 137.469 95.9035C137.888 95.4852 138.123 94.9178 138.123 94.3262Z" fill="#F0F0F0"/>
<path d="M138.123 113.434H62.4688C62.4688 113.727 62.5264 114.017 62.6386 114.287C62.7507 114.558 62.915 114.804 63.1221 115.011C63.3292 115.218 63.5752 115.382 63.8458 115.494C64.1164 115.607 64.4065 115.664 64.6994 115.664H135.892C136.185 115.664 136.475 115.607 136.746 115.494C137.016 115.382 137.262 115.218 137.469 115.011C137.677 114.804 137.841 114.558 137.953 114.287C138.065 114.017 138.123 113.727 138.123 113.434Z" fill="#F0F0F0"/>
<path d="M179.215 138.054V91.998H168.964V138.054H179.215Z" fill="#E6E6E6"/>
<path d="M31.627 89.1601V91.998L168.965 91.998V89.1601L31.627 89.1601Z" fill="#FAFAFA"/>
<path d="M156.891 85.0488C156.891 86.1392 157.324 87.185 158.095 87.956C158.866 88.7271 159.912 89.1602 161.002 89.1602C162.092 89.1602 163.138 88.7271 163.909 87.956C164.68 87.185 165.113 86.1392 165.113 85.0488H156.891Z" fill="#F5F5F5"/>
<path d="M145.932 85.0488C145.932 86.1392 146.365 87.185 147.136 87.956C147.907 88.7271 148.953 89.1602 150.043 89.1602C151.133 89.1602 152.179 88.7271 152.95 87.956C153.721 87.185 154.154 86.1392 154.154 85.0488H145.932Z" fill="#F5F5F5"/>
<path d="M33.1016 87.7734C33.1016 88.5367 36.5214 89.1608 40.7382 89.1608C44.9551 89.1608 48.3749 88.5367 48.3749 87.7734H33.1016Z" fill="#F5F5F5"/>
<path d="M33.1016 87.043C33.1016 87.8104 36.5214 88.4345 40.7382 88.4345C44.9551 88.4345 48.3749 87.8104 48.3749 87.043H33.1016Z" fill="#F5F5F5"/>
<path d="M168.965 89.1601V91.998H179.216V89.1601H168.965Z" fill="#E0E0E0"/>
<path d="M174.745 8.83789H149.68V41.4972H174.745V8.83789Z" fill="#EBEBEB"/>
<path d="M173.577 8.83789H148.512V41.4972H173.577V8.83789Z" fill="#F5F5F5"/>
<path d="M170.211 13.2285H151.881V37.1126H170.211V13.2285Z" fill="white"/>
<path d="M117.615 51.2125V76.2773H157.22V51.2125H117.615Z" fill="#EBEBEB"/>
<path d="M116.41 51.2125V76.2773H156.015V51.2125H116.41Z" fill="#F5F5F5"/>
<path d="M120.799 54.5777V72.9082H151.624V54.5777H120.799Z" fill="white"/>
<path d="M188.564 48.2148H168.184V68.2954H188.564V48.2148Z" fill="#EBEBEB"/>
<path d="M187.396 48.2148H167.016V68.2954H187.396V48.2148Z" fill="#F5F5F5"/>
<path d="M184.03 52.6055H170.385V63.9108H184.03V52.6055Z" fill="white"/>
<path d="M143.198 24.2012H122.818V44.2817H143.198V24.2012Z" fill="#EBEBEB"/>
<path d="M142.036 24.2012H121.656V44.2817H142.036V24.2012Z" fill="#F5F5F5"/>
<path d="M138.671 28.5898H125.025V39.8952H138.671V28.5898Z" fill="white"/>
<path d="M105.42 157.102C150.575 157.102 187.18 154.964 187.18 152.328C187.18 149.692 150.575 147.555 105.42 147.555C60.2654 147.555 23.6602 149.692 23.6602 152.328C23.6602 154.964 60.2654 157.102 105.42 157.102Z" fill="#F5F5F5"/>
<path d="M133.585 30.8164H133.146V33.5911H133.585V30.8164Z" fill="#30084F"/>
<path d="M133.586 28.5599H133.164C133.162 26.9438 132.518 25.3946 131.375 24.2523C130.232 23.1099 128.682 22.4677 127.066 22.4666V22.0449C128.793 22.0505 130.447 22.7385 131.669 23.959C132.89 25.1795 133.579 26.8334 133.586 28.5599Z" fill="#30084F"/>
<path d="M127.049 23.5625H68.8488C66.0868 23.5625 63.8477 25.8016 63.8477 28.5637V147.267C63.8477 150.029 66.0868 152.268 68.8488 152.268H127.049C129.812 152.268 132.051 150.029 132.051 147.267V28.5637C132.051 25.8016 129.812 23.5625 127.049 23.5625Z" fill="#30084F"/>
<path opacity="0.95" d="M129.781 147.268V28.5604C129.781 26.8626 128.405 25.4863 126.707 25.4863L68.5065 25.4863C66.8088 25.4863 65.4325 26.8626 65.4325 28.5604L65.4325 147.268C65.4325 148.966 66.8088 150.342 68.5065 150.342H126.707C128.405 150.342 129.781 148.966 129.781 147.268Z" fill="white"/>
<path d="M97.6117 145.577C99.533 145.577 101.091 144.019 101.091 142.098C101.091 140.177 99.533 138.619 97.6117 138.619C95.6904 138.619 94.1328 140.177 94.1328 142.098C94.1328 144.019 95.6904 145.577 97.6117 145.577Z" fill="#30084F"/>
<path d="M94.9512 25.1367C94.9512 25.8983 95.2537 26.6287 95.7923 27.1673C96.3308 27.7058 97.0612 28.0084 97.8228 28.0084C98.5844 28.0084 99.3149 27.7058 99.8534 27.1673C100.392 26.6287 100.694 25.8983 100.694 25.1367H94.9512Z" fill="#30084F"/>
<path opacity="0.7" d="M116.6 37.5957H79.07C77.5392 37.6002 76.0724 38.2102 74.9899 39.2927C73.9075 40.3751 73.2974 41.842 73.293 43.3728V47.2269C73.2974 48.7577 73.9075 50.2246 74.9899 51.307C76.0724 52.3895 77.5392 52.9995 79.07 53.004H116.6L122.377 56.4281V43.3559C122.367 41.8284 121.754 40.3665 120.673 39.2879C119.591 38.2093 118.127 37.6012 116.6 37.5957Z" fill="#30084F"/>
<path d="M115.555 43.1172H80.0957V44.0786H115.555V43.1172Z" fill="white"/>
<path d="M115.554 46.5234H86.918V47.4849H115.554V46.5234Z" fill="white"/>
<path opacity="0.15" d="M79.0485 63.252H116.578C118.109 63.2564 119.576 63.8665 120.658 64.9489C121.741 66.0314 122.351 67.4982 122.355 69.029V72.879C122.351 74.4098 121.741 75.8766 120.658 76.959C119.576 78.0415 118.109 78.6516 116.578 78.656H79.0485L73.2715 82.0801V69.0079C73.2804 67.4804 73.8926 66.0184 74.9746 64.9402C76.0567 63.8621 77.521 63.2553 79.0485 63.252Z" fill="#30084F"/>
<path opacity="0.5" d="M115.555 68.7676H80.0957V69.729H115.555V68.7676Z" fill="#30084F"/>
<path opacity="0.5" d="M96.5413 72.1797H80.0957V73.1411H96.5413V72.1797Z" fill="#30084F"/>
<path opacity="0.5" d="M105.797 72.1797H99.1094V73.1411H105.797V72.1797Z" fill="#30084F"/>
<path opacity="0.7" d="M116.6 88.9023H79.07C77.5392 88.9068 76.0724 89.5169 74.9899 90.5993C73.9075 91.6818 73.2974 93.1486 73.293 94.6794V98.5294C73.2963 100.061 73.906 101.528 74.9887 102.611C76.0714 103.693 77.5389 104.303 79.07 104.306H116.6L122.377 107.73V94.6583C122.366 93.1315 121.753 91.6707 120.671 90.5931C119.59 89.5154 118.127 88.9079 116.6 88.9023Z" fill="#30084F"/>
<path d="M115.555 94.418H80.0957V95.3794H115.555V94.418Z" fill="white"/>
<path d="M115.554 97.8301H86.918V98.7915H115.554V97.8301Z" fill="white"/>
<path opacity="0.15" d="M79.0485 114.553H93.6514C95.1819 114.558 96.6481 115.169 97.7303 116.251C98.8125 117.333 99.4229 118.799 99.4285 120.33V124.184C99.4229 125.714 98.8125 127.181 97.7303 128.263C96.6481 129.345 95.1819 129.955 93.6514 129.961H79.0485L73.2715 133.381V120.33C73.2759 118.799 73.886 117.332 74.9685 116.25C76.0509 115.167 77.5177 114.557 79.0485 114.553Z" fill="#30084F"/>
<path opacity="0.5" d="M81.975 122.257C81.975 122.591 81.8761 122.917 81.6908 123.194C81.5054 123.472 81.242 123.688 80.9338 123.815C80.6256 123.943 80.2864 123.976 79.9592 123.911C79.632 123.846 79.3315 123.686 79.0956 123.45C78.8597 123.214 78.6991 122.913 78.634 122.586C78.5689 122.259 78.6023 121.92 78.73 121.612C78.8576 121.303 79.0738 121.04 79.3512 120.855C79.6286 120.669 79.9547 120.57 80.2883 120.57C80.7339 120.576 81.1598 120.755 81.4749 121.07C81.7901 121.386 81.9696 121.811 81.975 122.257Z" fill="#30084F"/>
<path opacity="0.5" d="M85.3875 122.599C86.3307 122.599 87.0953 121.835 87.0953 120.891C87.0953 119.948 86.3307 119.184 85.3875 119.184C84.4443 119.184 83.6797 119.948 83.6797 120.891C83.6797 121.835 84.4443 122.599 85.3875 122.599Z" fill="#30084F"/>
<path opacity="0.5" d="M92.2094 124.304C92.2094 124.638 92.1105 124.964 91.9251 125.241C91.7398 125.518 91.4764 125.735 91.1682 125.862C90.8599 125.99 90.5208 126.023 90.1936 125.958C89.8664 125.893 89.5659 125.733 89.33 125.497C89.0941 125.261 88.9334 124.96 88.8683 124.633C88.8033 124.306 88.8367 123.967 88.9643 123.658C89.092 123.35 89.3082 123.087 89.5856 122.901C89.863 122.716 90.1891 122.617 90.5227 122.617C90.97 122.617 91.399 122.795 91.7154 123.111C92.0317 123.428 92.2094 123.857 92.2094 124.304Z" fill="#30084F"/>
<path d="M145.199 118.156C145.663 119.08 146.076 120.007 146.511 120.935C146.945 121.863 147.354 122.807 147.742 123.752C148.13 124.697 148.535 125.645 148.906 126.611C149.277 127.577 149.652 128.542 149.994 129.563L148.484 128.142C149.364 128.442 150.286 128.602 151.217 128.614C152.295 128.643 153.375 128.594 154.447 128.466C155.56 128.348 156.682 128.163 157.82 127.952C158.959 127.741 160.097 127.48 161.194 127.222L162.193 129.651C161.096 130.254 159.96 130.786 158.794 131.241C157.626 131.71 156.431 132.107 155.214 132.43C153.95 132.771 152.657 132.997 151.351 133.105C149.896 133.246 148.426 133.126 147.012 132.751L146.021 132.477L145.482 131.317C144.672 129.542 143.795 127.72 142.952 125.903C142.53 124.992 142.087 124.077 141.665 123.162C141.244 122.247 140.822 121.327 140.4 120.408L145.199 118.156Z" fill="#FFC3BD"/>
<path d="M159.818 127.965L161.476 126.346L164.107 129.192C164.107 129.192 163.154 130.858 160.784 129.888L159.818 127.965Z" fill="#FFC3BD"/>
<path d="M163.977 125.273L165.427 127.639L164.112 129.191L161.48 126.345L163.977 125.273Z" fill="#FFC3BD"/>
<path d="M137.752 114.365C141.125 113.062 143.74 115.006 148.003 120.387L143.01 125.519C143.01 125.519 131.174 116.887 137.752 114.365Z" fill="#263238"/>
<path opacity="0.2" d="M144.085 119.932C142.491 118.899 141.104 119.189 139.932 120.151C140.374 121.791 141.509 123.672 142.601 125.211C142.858 125.414 143.023 125.523 143.023 125.523L145.806 122.66C145.733 122.108 145.542 121.578 145.245 121.107C144.948 120.636 144.552 120.235 144.085 119.932Z" fill="#040009"/>
<path d="M163.444 150.137L167.484 149.669L167.147 141.387L163.111 141.851L163.444 150.137Z" fill="#FFC3BD"/>
<path d="M167.519 147.928L162.969 147.991C162.895 147.995 162.825 148.025 162.772 148.076C162.718 148.127 162.685 148.196 162.678 148.269L162.164 151.849C162.149 151.934 162.152 152.021 162.173 152.104C162.194 152.187 162.233 152.265 162.287 152.332C162.341 152.398 162.409 152.453 162.486 152.491C162.563 152.53 162.647 152.551 162.733 152.554C164.146 152.507 164.795 152.402 166.579 152.372C167.679 152.372 170.994 152.436 172.512 152.415C174.03 152.393 174.131 150.728 173.503 150.58C170.682 149.948 169.058 149.041 168.118 148.164C167.957 148.009 167.742 147.924 167.519 147.928Z" fill="#263238"/>
<path d="M168.484 146.873C168.547 146.849 168.616 146.841 168.683 146.849C168.751 146.857 168.815 146.881 168.872 146.92C168.916 146.942 168.954 146.974 168.983 147.015C169.012 147.055 169.03 147.102 169.036 147.151C169.087 147.573 168.193 148.332 168.07 148.416C168.058 148.425 168.043 148.43 168.028 148.43C168.013 148.43 167.998 148.425 167.986 148.416C167.972 148.409 167.96 148.397 167.953 148.383C167.945 148.369 167.942 148.352 167.944 148.336C167.973 147.881 168.079 147.071 168.437 146.89L168.484 146.873ZM168.117 148.163C168.471 147.856 168.91 147.392 168.88 147.16C168.88 147.135 168.88 147.097 168.808 147.063C168.767 147.033 168.718 147.014 168.666 147.01C168.615 147.005 168.564 147.015 168.517 147.038C168.323 147.143 168.176 147.56 168.117 148.163Z" fill="#30084F"/>
<path d="M168.443 148.011C168.592 147.932 168.755 147.884 168.923 147.87C169.091 147.855 169.26 147.875 169.421 147.927C169.476 147.961 169.518 148.013 169.542 148.074C169.565 148.134 169.569 148.201 169.552 148.264C169.543 148.323 169.52 148.38 169.486 148.429C169.452 148.478 169.406 148.518 169.353 148.546C168.932 148.778 168.038 148.433 168 148.42C167.987 148.414 167.975 148.405 167.966 148.394C167.956 148.383 167.949 148.37 167.945 148.357C167.942 148.343 167.943 148.329 167.947 148.315C167.952 148.302 167.96 148.29 167.97 148.281C168.111 148.164 168.271 148.073 168.443 148.011ZM169.227 148.433L169.273 148.411C169.306 148.392 169.335 148.366 169.357 148.335C169.378 148.304 169.393 148.268 169.4 148.23C169.4 148.129 169.379 148.091 169.345 148.074C169.143 147.943 168.523 148.112 168.19 148.327C168.519 148.458 168.878 148.495 169.227 148.433Z" fill="#30084F"/>
<path opacity="0.2" d="M163.111 141.855L167.147 141.387L167.32 145.658L163.263 145.675L163.111 141.855Z" fill="#040009"/>
<path d="M143.306 137.048C143.306 137.048 153.789 127.298 160.595 127.151C165.562 127.045 169.113 143.474 169.113 143.474L163.209 143.588C163.209 143.588 162.172 137.777 158.313 136.175C152.739 144.541 130.014 161.075 132.169 143.15C135.542 141.88 143.306 137.048 143.306 137.048Z" fill="#30084F"/>
<path opacity="0.2" d="M143.306 137.048C143.306 137.048 153.789 127.298 160.595 127.151C165.562 127.045 169.113 143.474 169.113 143.474L163.209 143.588C163.209 143.588 162.172 137.777 158.313 136.175C152.739 144.541 130.014 161.075 132.169 143.15C135.542 141.88 143.306 137.048 143.306 137.048Z" fill="#040009"/>
<path d="M169.091 144.288L162.15 144.954L162.171 142.424L169.513 141.551L169.091 144.288Z" fill="#263238"/>
<path d="M129.541 143.769C129.541 143.769 125.033 134.964 124.48 120.783C124.354 117.443 127.361 114.293 130.806 114.116C133.698 113.964 136.76 113.926 139.239 113.935C141.719 113.943 143.616 115.588 143.899 117.974C144.523 123.237 144.633 131.228 147.859 140.745L129.541 143.769Z" fill="#263238"/>
<path opacity="0.2" d="M126.593 120.854C129.077 118.05 129.933 118.944 130.304 119.281C133.745 122.397 128.693 132.1 127.681 133.53C126.97 129.906 126.547 126.231 126.416 122.541C126.39 121.973 126.45 121.404 126.593 120.854Z" fill="#040009"/>
<path d="M134.163 105.688C133.885 108.272 133.202 112.24 131.443 114.083C132.826 115.386 135.078 116.668 138.279 117.204C139.932 116.521 140.151 114.998 139.35 113.94C136.525 113.446 136.558 112.645 137.625 110.845L134.163 105.688Z" fill="#FFC3BD"/>
<path opacity="0.2" d="M135.576 107.791L137.626 110.84C137.354 111.259 137.142 111.715 136.997 112.193C135.994 111.772 134.889 110.237 135.108 109.107C135.185 108.644 135.343 108.198 135.576 107.791Z" fill="#040009"/>
<path d="M141.567 100.922C143.225 102.68 146.708 102.689 145.211 100.606C143.714 98.5225 140.277 99.5515 141.567 100.922Z" fill="#263238"/>
<path d="M134.851 100.731C133.927 104.105 133.219 105.994 134.269 108.322C134.587 109.081 135.109 109.737 135.776 110.22C136.444 110.702 137.231 110.992 138.052 111.057C138.872 111.122 139.695 110.959 140.43 110.588C141.165 110.216 141.783 109.649 142.217 108.95C143.904 106.285 145.144 101.246 142.441 98.6861C141.881 98.1142 141.179 97.7017 140.406 97.491C139.634 97.2803 138.82 97.279 138.047 97.4873C137.274 97.6955 136.571 98.1058 136.009 98.6759C135.447 99.246 135.047 99.9555 134.851 100.731Z" fill="#FFC3BD"/>
<path d="M134.095 103.862C134.517 103.786 136.6 103.153 137.616 102.175C138.759 101.074 138.767 100.007 138.46 99.5226C138.152 99.0376 135.74 98.1057 134.614 98.3208C132.834 98.6623 133.273 101.812 133.298 102.664C133.312 102.917 133.393 103.161 133.533 103.372C133.673 103.583 133.867 103.752 134.095 103.862Z" fill="#FFC3BD"/>
<path opacity="0.7" d="M134.095 103.862C134.517 103.786 136.6 103.153 137.616 102.175C138.759 101.074 138.767 100.007 138.46 99.5226C138.152 99.0376 135.74 98.1057 134.614 98.3208C132.834 98.6623 133.273 101.812 133.298 102.664C133.312 102.917 133.393 103.161 133.533 103.372C133.673 103.583 133.867 103.752 134.095 103.862Z" fill="#263238"/>
<path d="M132.329 104.092C132.657 104.817 133.246 105.392 133.978 105.703C134.948 106.095 135.5 105.281 135.289 104.29C135.1 103.418 134.366 102.157 133.367 102.182C132.367 102.207 131.933 103.198 132.329 104.092Z" fill="#FFC3BD"/>
<path d="M135.5 99.3276C139.801 100.247 142.858 102.667 144.891 101.212C146.329 100.184 145.384 98.3071 143.735 96.9493C142.327 95.7896 140.362 95.4312 139.772 94.4824C139.703 94.798 139.729 95.1268 139.848 95.4272C139.967 95.7275 140.172 95.9858 140.438 96.1692C140.438 96.1692 136.554 95.5704 135.479 94.5583C135.222 95.1613 136.217 96.3252 136.217 96.3252C136.217 96.3252 135.12 97.3667 132 96.1902C132.186 97.1981 133.054 98.8047 135.5 99.3276Z" fill="#263238"/>
<path d="M144.043 101.555H143.874V101.335C144.245 101.381 144.622 101.305 144.946 101.117C145.269 100.928 145.522 100.639 145.666 100.294C145.827 99.8316 145.839 99.3305 145.7 98.8612C145.561 98.392 145.278 97.9785 144.89 97.6793C144.518 97.3893 144.111 97.1458 143.68 96.954C142.681 96.4522 141.546 95.8829 140.998 94.2257L141.205 94.1582C141.723 95.7269 142.769 96.2666 143.781 96.7558C144.232 96.9568 144.657 97.2116 145.046 97.5148C145.472 97.841 145.783 98.2941 145.935 98.8088C146.087 99.3235 146.071 99.873 145.89 100.378C145.742 100.741 145.484 101.05 145.153 101.26C144.823 101.471 144.434 101.574 144.043 101.555Z" fill="#263238"/>
<path d="M139.725 104.009C139.633 104.275 139.7 104.549 139.869 104.616C140.037 104.684 140.253 104.524 140.345 104.258C140.438 103.992 140.371 103.718 140.202 103.651C140.033 103.583 139.814 103.735 139.725 104.009Z" fill="#263238"/>
<path d="M142.905 104.969C142.817 105.235 142.88 105.505 143.053 105.572C143.226 105.64 143.436 105.484 143.525 105.214C143.614 104.944 143.554 104.678 143.382 104.607C143.209 104.535 142.998 104.699 142.905 104.969Z" fill="#263238"/>
<path d="M141.737 104.645C141.771 105.589 141.929 106.525 142.21 107.428C141.594 107.681 140.873 107.166 140.873 107.166L141.737 104.645Z" fill="#ED847E"/>
<path d="M139.157 107.809C138.585 107.494 138.161 106.967 137.976 106.341C137.973 106.331 137.972 106.32 137.973 106.31C137.975 106.299 137.978 106.289 137.984 106.28C137.989 106.27 137.997 106.262 138.006 106.256C138.014 106.25 138.024 106.246 138.035 106.244C138.046 106.242 138.057 106.242 138.067 106.243C138.078 106.245 138.088 106.249 138.097 106.255C138.106 106.261 138.114 106.269 138.12 106.278C138.126 106.287 138.13 106.297 138.132 106.308C138.24 106.648 138.423 106.959 138.668 107.219C138.912 107.479 139.212 107.68 139.545 107.809C139.565 107.817 139.582 107.833 139.591 107.854C139.599 107.875 139.599 107.898 139.591 107.918C139.588 107.929 139.583 107.938 139.577 107.946C139.57 107.955 139.561 107.961 139.551 107.966C139.542 107.97 139.531 107.972 139.521 107.972C139.51 107.972 139.499 107.969 139.49 107.965C139.375 107.92 139.264 107.868 139.157 107.809Z" fill="#263238"/>
<path d="M138.86 102.263C138.834 102.249 138.812 102.229 138.797 102.204C138.773 102.168 138.764 102.124 138.773 102.081C138.782 102.038 138.807 102.001 138.843 101.977C139.057 101.832 139.303 101.743 139.56 101.717C139.817 101.691 140.077 101.73 140.315 101.829C140.335 101.838 140.353 101.851 140.368 101.867C140.384 101.883 140.396 101.902 140.403 101.923C140.411 101.944 140.415 101.966 140.414 101.988C140.413 102.01 140.408 102.032 140.399 102.052C140.391 102.072 140.379 102.089 140.364 102.104C140.349 102.119 140.331 102.13 140.311 102.138C140.291 102.145 140.27 102.149 140.249 102.148C140.228 102.147 140.207 102.142 140.188 102.133C139.998 102.059 139.793 102.032 139.59 102.055C139.388 102.078 139.194 102.149 139.024 102.263C138.999 102.278 138.971 102.285 138.942 102.285C138.913 102.285 138.885 102.278 138.86 102.263Z" fill="#263238"/>
<path d="M143.988 104.181C143.962 104.172 143.939 104.157 143.919 104.137C143.9 104.118 143.886 104.094 143.878 104.067C143.824 103.862 143.724 103.672 143.585 103.511C143.446 103.35 143.273 103.223 143.077 103.14C143.035 103.125 143.001 103.095 142.98 103.056C142.96 103.017 142.955 102.971 142.968 102.929C142.973 102.908 142.982 102.889 142.995 102.872C143.008 102.856 143.025 102.842 143.043 102.832C143.062 102.822 143.083 102.816 143.104 102.815C143.125 102.813 143.146 102.816 143.166 102.823C143.414 102.923 143.636 103.08 143.813 103.28C143.99 103.481 144.118 103.72 144.186 103.979C144.193 103.999 144.196 104.021 144.195 104.043C144.193 104.064 144.188 104.085 144.178 104.105C144.168 104.124 144.154 104.141 144.138 104.155C144.121 104.169 144.102 104.179 144.081 104.185C144.05 104.192 144.018 104.191 143.988 104.181Z" fill="#263238"/>
<path d="M177.457 152.106L179.861 148.611L173.388 142.973L170.984 146.468L177.457 152.106Z" fill="#FFC3BD"/>
<path d="M178.2 146.956L175.379 150.469C175.33 150.528 175.303 150.603 175.303 150.68C175.303 150.757 175.33 150.832 175.379 150.891L177.576 153.623C177.628 153.688 177.694 153.741 177.77 153.777C177.845 153.813 177.927 153.832 178.011 153.832C178.094 153.832 178.176 153.813 178.251 153.777C178.327 153.741 178.393 153.688 178.445 153.623C179.335 152.476 179.929 151.595 181.072 150.17C181.776 149.293 183.99 146.729 184.964 145.531C185.938 144.334 184.825 143.153 184.315 143.558C182.025 145.367 179.988 146.476 178.757 146.644C178.539 146.676 178.341 146.787 178.2 146.956Z" fill="#263238"/>
<path d="M178.013 145.515C178.033 145.45 178.068 145.39 178.115 145.341C178.162 145.291 178.219 145.253 178.283 145.228C178.327 145.205 178.376 145.193 178.426 145.193C178.476 145.193 178.525 145.205 178.57 145.228C178.953 145.452 178.991 146.624 178.991 146.759C178.991 146.775 178.986 146.79 178.977 146.802C178.968 146.815 178.955 146.825 178.941 146.831C178.927 146.839 178.912 146.843 178.896 146.843C178.881 146.843 178.865 146.839 178.852 146.831C178.506 146.535 177.933 145.987 178.009 145.566C178.008 145.549 178.009 145.532 178.013 145.515ZM178.827 146.582C178.793 146.11 178.688 145.485 178.485 145.367C178.466 145.358 178.444 145.353 178.422 145.353C178.4 145.353 178.378 145.358 178.359 145.367C178.31 145.384 178.267 145.413 178.233 145.452C178.199 145.49 178.176 145.537 178.165 145.587C178.135 145.806 178.371 146.173 178.827 146.582Z" fill="#30084F"/>
<path d="M178.909 146.231C179.006 145.873 179.191 145.485 179.423 145.388C179.484 145.364 179.551 145.361 179.614 145.378C179.677 145.396 179.733 145.433 179.773 145.485C179.815 145.528 179.847 145.58 179.866 145.637C179.885 145.694 179.89 145.754 179.883 145.814C179.824 146.278 179.006 146.8 178.968 146.822C178.956 146.829 178.942 146.833 178.928 146.833C178.913 146.833 178.9 146.829 178.887 146.822C178.874 146.817 178.862 146.809 178.854 146.797C178.846 146.786 178.841 146.772 178.841 146.758C178.834 146.58 178.857 146.402 178.909 146.231ZM179.71 145.847C179.71 145.847 179.71 145.818 179.71 145.801C179.715 145.763 179.711 145.725 179.699 145.689C179.686 145.653 179.666 145.621 179.638 145.594C179.571 145.519 179.52 145.523 179.482 145.54C179.259 145.624 179.022 146.223 178.993 146.615C179.298 146.43 179.546 146.164 179.71 145.847Z" fill="#30084F"/>
<path opacity="0.2" d="M170.984 146.468L173.388 142.973L176.728 145.878L173.97 149.07L170.984 146.468Z" fill="#040009"/>
<path d="M136.125 142.484C136.125 142.484 154.552 123.761 162.847 131.773C168.012 136.766 175.603 143.643 175.603 143.643L171.204 147.923C171.204 147.923 160.064 141.999 157.162 138.727C141.94 155.746 128.336 156.91 129.559 143.787C131.717 143.21 133.91 142.775 136.125 142.484Z" fill="#30084F"/>
<path d="M176.913 143.68L172.081 149.752L170.031 148.377L174.969 141.93L176.913 143.68Z" fill="#263238"/>
<path d="M129.604 119.594L129.967 127.268C130.034 128.533 130.114 129.798 130.211 131.064C130.262 131.683 130.329 132.295 130.397 132.881C130.435 133.176 130.473 133.463 130.519 133.724C130.565 133.986 130.616 134.23 130.65 134.378C130.652 134.4 130.652 134.423 130.65 134.445C130.58 134.32 130.482 134.213 130.363 134.133C130.294 134.084 130.217 134.047 130.135 134.024C130.089 134.024 130.064 134.024 130.085 134.024C130.43 134.077 130.782 134.054 131.118 133.956C132.233 133.678 133.319 133.292 134.36 132.805C135.486 132.312 136.608 131.742 137.734 131.152C138.86 130.562 139.986 129.933 141.078 129.322L142.655 131.43C140.678 133.27 138.53 134.918 136.241 136.351C135.655 136.71 135.048 137.056 134.407 137.38C133.737 137.726 133.042 138.019 132.328 138.257C131.921 138.392 131.506 138.496 131.084 138.569C130.566 138.666 130.036 138.692 129.511 138.645C129.172 138.614 128.837 138.54 128.516 138.426C128.129 138.29 127.765 138.095 127.436 137.848C127.094 137.583 126.799 137.262 126.564 136.9C126.456 136.734 126.36 136.56 126.277 136.381L126.117 135.993C125.968 135.591 125.843 135.182 125.741 134.766C125.649 134.391 125.573 134.041 125.505 133.691C125.366 132.995 125.261 132.316 125.168 131.645C124.974 130.304 124.835 128.98 124.717 127.661C124.48 125.021 124.341 122.411 124.295 119.758L129.604 119.594Z" fill="#FFC3BD"/>
<path d="M128.31 114.647C126.324 114.87 123.351 116.755 123.25 125.518L131.768 124.847C131.768 124.847 135.782 113.791 128.31 114.647Z" fill="#263238"/>
<path d="M148.242 124.881L145.08 125.088C144.893 125.114 144.718 125.195 144.579 125.322C144.439 125.448 144.34 125.613 144.295 125.797L142.815 132.746C142.79 132.821 142.784 132.902 142.799 132.981C142.813 133.059 142.846 133.133 142.896 133.195C142.946 133.257 143.011 133.305 143.084 133.336C143.158 133.367 143.238 133.378 143.317 133.37L146.48 133.163C146.667 133.139 146.842 133.058 146.982 132.931C147.122 132.805 147.22 132.639 147.264 132.455L148.744 125.506C148.769 125.43 148.775 125.349 148.761 125.271C148.747 125.193 148.713 125.119 148.663 125.057C148.613 124.995 148.549 124.946 148.475 124.916C148.402 124.885 148.322 124.873 148.242 124.881Z" fill="#30084F"/>
<path d="M141.335 129.157L143.954 128.246L143.309 132.349C143.309 132.349 140.391 132.99 140.15 131.421L140.572 130.026C140.625 129.833 140.722 129.654 140.854 129.504C140.986 129.353 141.151 129.235 141.335 129.157Z" fill="#FFC3BD"/>
<path d="M146.948 128.592L145.813 132.244L143.309 132.349L143.954 128.246L146.948 128.592Z" fill="#FFC3BD"/>
<path d="M56.2437 42.5906C54.1859 37.8129 65.4069 32.8117 68.5779 40.2502C73.9628 42.5906 67.0809 52.5423 68.6369 54.229C70.193 55.9157 71.3652 53.8706 71.3652 53.8706C71.3652 53.8706 72.9381 58.0621 68.9279 61.4187C65.3352 64.4337 54.5274 65.2518 54.5021 59.3103C54.4684 51.5851 58.9425 48.8526 56.2437 42.5906Z" fill="#263238"/>
<path d="M66.5629 142.893L63.5436 144.651L56.2949 136.365L60.0563 132.971L66.5629 142.893Z" fill="#FF8B7B"/>
<path d="M63.1969 143.892L66.3131 141.501C66.3618 141.458 66.4249 141.434 66.4902 141.434C66.5556 141.434 66.6186 141.458 66.6673 141.501L68.7336 143.542C68.7841 143.599 68.8219 143.666 68.8446 143.739C68.8673 143.812 68.8742 143.889 68.8651 143.965C68.8559 144.04 68.8308 144.113 68.7914 144.178C68.752 144.244 68.6993 144.3 68.6366 144.343C67.5402 145.157 66.971 145.499 65.6005 146.553C64.7571 147.198 63.0704 148.615 61.915 149.505C60.7596 150.395 59.8825 149.37 60.2915 148.902C62.1385 146.793 62.5391 145.528 62.8216 144.402C62.8855 144.195 63.0178 144.015 63.1969 143.892Z" fill="#263238"/>
<path d="M62.4978 145.139C62.281 145.341 62.0041 145.467 61.7093 145.497C61.639 145.494 61.5705 145.474 61.5101 145.438C61.4497 145.402 61.3993 145.351 61.3635 145.291C61.3429 145.252 61.332 145.21 61.332 145.166C61.332 145.123 61.3429 145.08 61.3635 145.042C61.5744 144.62 63.0755 144.287 63.2442 144.249C63.2604 144.247 63.2771 144.249 63.2921 144.255C63.307 144.262 63.3197 144.273 63.3286 144.287C63.3367 144.301 63.341 144.317 63.341 144.333C63.341 144.35 63.3367 144.366 63.3286 144.38C63.0754 144.658 62.7973 144.912 62.4978 145.139ZM61.6039 144.983C61.5598 145.013 61.5236 145.054 61.4985 145.101C61.489 145.115 61.484 145.132 61.484 145.149C61.484 145.167 61.489 145.183 61.4985 145.198C61.5204 145.238 61.5526 145.273 61.5918 145.297C61.6309 145.321 61.6758 145.335 61.7219 145.337C61.996 145.337 62.4725 145.025 63.0123 144.46C62.5173 144.556 62.0415 144.732 61.6039 144.983Z" fill="#30084F"/>
<path d="M63.2893 144.388H63.2555C62.8338 144.502 61.7501 144.443 61.5688 144.11C61.5308 144.034 61.5182 143.903 61.6869 143.747C61.8071 143.635 61.9654 143.573 62.1296 143.574C62.682 143.574 63.2724 144.228 63.2935 144.257C63.3006 144.269 63.3043 144.282 63.3043 144.295C63.3043 144.309 63.3006 144.322 63.2935 144.333C63.2976 144.352 63.2962 144.371 63.2893 144.388ZM61.8387 143.844L61.8007 143.878C61.6911 143.979 61.7164 144.03 61.7248 144.047C61.826 144.249 62.5977 144.346 63.0784 144.278C62.8268 144.003 62.4921 143.818 62.1254 143.751C62.0221 143.749 61.9211 143.782 61.8387 143.844Z" fill="#30084F"/>
<path d="M55.5855 59.9132C55.3873 60.8198 55.1638 61.6379 54.9108 62.4855C54.6578 63.333 54.3964 64.1722 54.0927 64.9818C53.5093 66.6455 52.8249 68.272 52.0434 69.8523L51.4235 71.033C51.2 71.4209 51.0018 71.8089 50.7488 72.1926L50.3862 72.7619C50.2597 72.9558 50.1627 73.1287 49.9898 73.3564C49.9054 73.4661 49.8211 73.5757 49.7072 73.7064C49.564 73.8752 49.4028 74.0279 49.2265 74.1618C49.0133 74.325 48.7673 74.4401 48.5055 74.4992C48.3836 74.5266 48.2592 74.5407 48.1344 74.5414C47.9817 74.543 47.8296 74.5216 47.6832 74.4781C47.4096 74.4041 47.1607 74.2586 46.9621 74.0564C46.763 73.8571 46.6179 73.6104 46.5404 73.3396C46.5013 73.2146 46.4745 73.086 46.4603 72.9558C46.4273 72.6517 46.4273 72.3449 46.4603 72.0408C46.4898 71.7878 46.532 71.5516 46.5741 71.3239C46.6585 70.8643 46.7681 70.4342 46.882 70.0041C47.1187 69.1576 47.4002 68.3243 47.7253 67.5077L49.4121 67.8788L49.2982 70.4089C49.2982 70.8306 49.2729 71.2269 49.2687 71.6149C49.2687 71.8089 49.2687 71.9986 49.2687 72.1673C49.2679 72.2886 49.2849 72.4094 49.3193 72.5257C49.3193 72.5257 49.3193 72.5257 49.3193 72.4498C49.2672 72.2903 49.1776 72.1457 49.0579 72.0281C48.8944 71.8618 48.6912 71.7398 48.4675 71.6739C48.3464 71.6413 48.2218 71.6229 48.0964 71.6191C47.9972 71.6208 47.8983 71.6321 47.8012 71.6528C47.6502 71.6896 47.5073 71.754 47.3796 71.8426C47.291 71.9058 47.3247 71.8721 47.3416 71.8426L47.4386 71.6781L48.0036 70.6661C48.1934 70.3119 48.3663 69.9492 48.5518 69.5908L49.0705 68.4944C49.7283 67.0059 50.3356 65.4752 50.8416 63.915C51.103 63.1349 51.3434 62.3463 51.5837 61.5578C51.8241 60.7692 52.0392 59.9554 52.2289 59.209L55.5855 59.9132Z" fill="#FF8B7B"/>
<path d="M54.1431 55.524C52.9202 55.7222 50.9805 63.4938 50.9805 63.4938L53.8015 65.6655C53.8015 65.6655 56.631 60.0487 56.7533 57.5228C56.8376 55.6927 55.0666 55.3764 54.1431 55.524Z" fill="#FF8B7B"/>
<path d="M49.7196 68.2532L49.2431 64.3906L47.0293 67.6376C47.1235 68.0289 47.3296 68.3844 47.6224 68.6607C47.9151 68.937 48.2819 69.1221 48.6781 69.1936L49.7196 68.2532Z" fill="#FF8B7B"/>
<path d="M65.1925 149.449L61.819 149.562L61.1738 137.789L65.8545 137.857L65.1925 149.449Z" fill="#FF8B7B"/>
<path d="M61.5916 148.488L65.3867 148.463C65.4502 148.461 65.5121 148.483 65.5593 148.526C65.6066 148.568 65.6354 148.627 65.6397 148.691L65.8674 151.68C65.8697 151.837 65.8098 151.989 65.7008 152.102C65.5917 152.215 65.4425 152.28 65.2855 152.284C63.9699 152.284 63.3373 152.195 61.6759 152.208C60.6512 152.208 59.1458 152.33 57.7374 152.343C56.329 152.355 56.3416 150.955 56.9404 150.824C59.6181 150.238 60.0862 149.454 61.0265 148.716C61.1852 148.581 61.3835 148.501 61.5916 148.488Z" fill="#263238"/>
<path d="M53.9367 55.4987C53.9367 55.4987 52.25 55.9204 52.25 75.8787L65.7818 77.0762C66.4607 71.5142 67.0089 68.0944 71.4914 56.9535C69.6523 56.3905 67.7733 55.9676 65.8703 55.6885C63.8397 55.3583 61.7877 55.1765 59.7306 55.1445C57.0319 55.1487 53.9367 55.4987 53.9367 55.4987Z" fill="#30084F"/>
<path opacity="0.2" d="M68.8051 59.5L69.5262 61.9584C68.9612 63.4807 68.4931 64.8259 68.1009 66.0361C67.8021 63.8325 68.0438 61.5893 68.8051 59.5Z" fill="#040009"/>
<path d="M49.2431 64.3906L47.0293 67.6376L49.7196 67.4816L51.1534 64.5129L49.2431 64.3906Z" fill="#FF8B7B"/>
<path d="M50.6487 71.8589L53.1788 71.8209C53.2621 71.8193 53.3442 71.8001 53.4195 71.7645C53.4949 71.7289 53.5619 71.6778 53.6161 71.6144C53.6702 71.5511 53.7104 71.477 53.7339 71.397C53.7573 71.3171 53.7636 71.233 53.7523 71.1505L52.9638 65.4788C52.9451 65.3365 52.8745 65.2062 52.7655 65.1128C52.6565 65.0193 52.5169 64.9695 52.3734 64.9728L49.8433 65.0108C49.76 65.0111 49.6776 65.0293 49.6019 65.0642C49.5262 65.0991 49.4589 65.1499 49.4046 65.2131C49.3502 65.2762 49.31 65.3503 49.2868 65.4304C49.2635 65.5104 49.2577 65.5945 49.2698 65.677L50.0584 71.3486C50.077 71.4913 50.1474 71.6222 50.2563 71.7163C50.3652 71.8104 50.5048 71.8611 50.6487 71.8589Z" fill="#263238"/>
<path d="M66.3773 48.668C65.6646 50.6246 64.6906 54.2342 65.8502 55.6848C63.833 57.3712 61.5726 58.7431 59.1454 59.754C57.7328 56.4564 59.7105 55.1408 59.7105 55.1408C62.0002 54.8077 62.2111 53.1547 62.0761 51.5734L66.3773 48.668Z" fill="#FF8B7B"/>
<path d="M57.1076 46.4238C56.7534 52.281 53.2323 53.9593 54.0588 56.9659C55.2269 61.1827 59.9919 57.8809 59.9919 57.8809C59.9919 57.8809 57.3986 58.7243 57.2341 56.6749C57.0992 54.9882 63.0871 55.2496 61.4256 51.2816C60.3588 48.7262 57.1076 46.4238 57.1076 46.4238Z" fill="#263238"/>
<path opacity="0.2" d="M65.1499 50.1465L62.0801 51.5718C62.1138 51.9421 62.1138 52.3147 62.0801 52.685C62.721 52.7441 64.3825 52.2633 65.0108 51.226C65.1849 50.8944 65.2342 50.5114 65.1499 50.1465Z" fill="#040009"/>
<path d="M66.909 43.1594C67.2168 46.4823 67.4192 47.8865 66.015 49.8347C63.9066 52.7654 59.753 52.4196 58.4585 49.2485C57.2904 46.3979 56.9826 41.439 60.0061 39.6299C60.6703 39.2267 61.4267 39.0001 62.2033 38.9718C62.9798 38.9434 63.7507 39.1143 64.4426 39.468C65.1345 39.8218 65.7244 40.3467 66.1561 40.9928C66.5878 41.639 66.847 42.3848 66.909 43.1594Z" fill="#FF8B7B"/>
<path d="M66.1746 39.8237C63.5518 38.0231 61.3717 41.4809 66.0271 44.8417C70.6824 48.2025 69.1559 41.8688 66.1746 39.8237Z" fill="#263238"/>
<path d="M64.7784 38.8594C65.8621 39.8335 59.4104 43.4262 55.902 42.2329C52.3936 41.0395 55.2104 38.3618 56.4881 38.016C55.3917 39.0745 57.3104 40.6811 58.2381 39.6775C59.1658 38.6739 62.6025 36.907 64.7784 38.8594Z" fill="#263238"/>
<path d="M52.2335 75.8789C52.2335 75.8789 45.0945 106.109 45.7228 113.742C46.4523 122.665 56.21 137.048 56.21 137.048L60.6925 132.979C60.6925 132.979 56.2437 121.197 52.9504 113.523C54.0046 105.848 63.3238 84.165 63.3238 76.8614L52.2335 75.8789Z" fill="#30084F"/>
<path opacity="0.6" d="M52.2335 75.8789C52.2335 75.8789 45.0945 106.109 45.7228 113.742C46.4523 122.665 56.21 137.048 56.21 137.048L60.6925 132.979C60.6925 132.979 56.2437 121.197 52.9504 113.523C54.0046 105.848 63.3238 84.165 63.3238 76.8614L52.2335 75.8789Z" fill="#040009"/>
<path d="M61.5194 133.586L56.2231 137.533L54.8652 136.5L60.676 131.916L61.5194 133.586Z" fill="#30084F"/>
<path opacity="0.2" d="M57.5167 89.1736C53.5824 94.6217 53.3926 104.641 53.6372 110.258C54.9866 105.088 57.8161 97.3669 60.0721 90.4091C60.0173 87.7441 59.3552 86.6224 57.5167 89.1736Z" fill="#040009"/>
<path d="M54.7715 75.9043C54.7715 75.9043 57.3859 102.011 58.2588 110.824C59.2961 121.286 60.8184 138.065 60.8184 138.065L65.8533 137.854C65.8533 137.854 66.9581 123.63 66.1401 114.239C66.2876 101.8 68.122 84.8861 65.7605 77.0597L54.7715 75.9043Z" fill="#30084F"/>
<path opacity="0.6" d="M54.7715 75.9043C54.7715 75.9043 57.3859 102.011 58.2588 110.824C59.2961 121.286 60.8184 138.065 60.8184 138.065L65.8533 137.854C65.8533 137.854 66.9581 123.63 66.1401 114.239C66.2876 101.8 68.122 84.8861 65.7605 77.0597L54.7715 75.9043Z" fill="#040009"/>
<path d="M66.2385 138.777L60.4615 138.612L60.0566 136.795L66.5927 136.613L66.2385 138.777Z" fill="#30084F"/>
<path d="M61.7376 44.9932C61.7797 45.2588 61.6701 45.4992 61.493 45.5287C61.3159 45.5582 61.143 45.3601 61.1008 45.107C61.0587 44.854 61.1683 44.601 61.3454 44.5715C61.5225 44.542 61.6954 44.7233 61.7376 44.9932Z" fill="#263238"/>
<path d="M58.7063 45.4631C58.7485 45.733 58.6388 45.9733 58.4617 45.9986C58.2846 46.0239 58.1117 45.83 58.0696 45.577C58.0274 45.3239 58.137 45.0667 58.3141 45.0414C58.4912 45.0161 58.6641 45.1974 58.7063 45.4631Z" fill="#263238"/>
<path d="M58.3892 45.0277L57.7188 44.9434C57.7188 44.9434 58.1278 45.3946 58.3892 45.0277Z" fill="#263238"/>
<path d="M59.7013 45.7285C59.556 46.3768 59.3233 47.0024 59.0098 47.5881C59.1616 47.6642 59.3281 47.7062 59.4978 47.7113C59.6675 47.7164 59.8362 47.6844 59.9923 47.6177L59.7013 45.7285Z" fill="#FF5652"/>
<path d="M61.7383 48.3553C61.6014 48.4039 61.4602 48.4392 61.3166 48.4608C61.2959 48.4645 61.2746 48.4599 61.2573 48.4481C61.2399 48.4363 61.2279 48.4181 61.2238 48.3975C61.222 48.387 61.2223 48.3762 61.2248 48.3658C61.2272 48.3554 61.2317 48.3456 61.238 48.3369C61.2443 48.3283 61.2522 48.321 61.2614 48.3154C61.2705 48.3099 61.2807 48.3063 61.2913 48.3047C61.6264 48.2613 61.9465 48.1389 62.2251 47.9475C62.5037 47.7562 62.7328 47.5014 62.8937 47.2042C62.9035 47.186 62.9197 47.1721 62.9392 47.1651C62.9586 47.1581 62.9799 47.1585 62.9991 47.1662C63.0088 47.1703 63.0176 47.1763 63.025 47.1839C63.0323 47.1914 63.0381 47.2004 63.0421 47.2101C63.046 47.2199 63.0479 47.2304 63.0478 47.241C63.0476 47.2515 63.0454 47.2619 63.0412 47.2716C62.765 47.7891 62.2974 48.178 61.7383 48.3553Z" fill="#263238"/>
<path d="M67.8314 45.4287C67.8087 45.7515 67.7226 46.0667 67.5778 46.3561C67.4331 46.6456 67.2327 46.9036 66.988 47.1154C66.3386 47.672 65.6513 47.1829 65.529 46.3775C65.4151 45.6564 65.6217 44.4967 66.4187 44.269C66.5917 44.2159 66.7752 44.2064 66.9527 44.2414C67.1303 44.2764 67.2964 44.3548 67.4363 44.4697C67.5762 44.5845 67.6855 44.7322 67.7544 44.8995C67.8233 45.0668 67.8498 45.2486 67.8314 45.4287Z" fill="#FF8B7B"/>
<path d="M63.1171 43.3322C63.0961 43.3364 63.0744 43.3363 63.0534 43.332C63.0324 43.3276 63.0125 43.3191 62.9948 43.3069C62.8337 43.1872 62.6464 43.1076 62.4485 43.0746C62.2505 43.0416 62.0475 43.0562 61.8563 43.1172C61.837 43.1253 61.8162 43.1295 61.7952 43.1294C61.7742 43.1294 61.7534 43.1251 61.7341 43.1168C61.7148 43.1086 61.6974 43.0965 61.6829 43.0813C61.6684 43.0662 61.6571 43.0482 61.6497 43.0286C61.6344 42.9894 61.6351 42.9458 61.6516 42.9072C61.6682 42.8685 61.6993 42.8379 61.7382 42.822C61.9781 42.7403 62.2342 42.718 62.4847 42.7569C62.7351 42.7958 62.9724 42.8948 63.1762 43.0455C63.2103 43.0693 63.2338 43.1056 63.2417 43.1466C63.2496 43.1875 63.2412 43.2299 63.2183 43.2647C63.1934 43.2982 63.1576 43.322 63.1171 43.3322Z" fill="#263238"/>
<path d="M57.3915 44.2985C57.373 44.3069 57.3529 44.3112 57.3325 44.3112C57.3121 44.3112 57.292 44.3069 57.2735 44.2985C57.2544 44.2899 57.2373 44.2776 57.2231 44.2622C57.2089 44.2469 57.1979 44.2288 57.1909 44.2092C57.1838 44.1895 57.1807 44.1686 57.1819 44.1477C57.183 44.1269 57.1884 44.1064 57.1976 44.0877C57.2974 43.8552 57.4519 43.6502 57.6479 43.4902C57.8439 43.3301 58.0757 43.2198 58.3234 43.1684C58.3638 43.1654 58.4038 43.1779 58.4354 43.2032C58.467 43.2285 58.4879 43.2649 58.4938 43.305C58.4996 43.345 58.4901 43.3858 58.4671 43.4192C58.4441 43.4525 58.4094 43.4759 58.3698 43.4847C58.1743 43.5287 57.9921 43.6186 57.8381 43.7469C57.6842 43.8752 57.5629 44.0383 57.4843 44.2226C57.4748 44.2409 57.4617 44.2571 57.4457 44.2701C57.4298 44.2832 57.4113 44.2928 57.3915 44.2985Z" fill="#263238"/>
<path d="M72.382 61.002C72.4452 61.6134 72.479 62.1489 72.4958 62.7182C72.5127 63.2875 72.5253 63.8357 72.5211 64.4049C72.5043 65.5294 72.4326 66.6539 72.3061 67.7784C72.1768 68.9166 71.9654 70.0441 71.6735 71.1519C71.523 71.724 71.34 72.2872 71.1254 72.8386C71.0199 73.1169 70.9019 73.3952 70.7796 73.6819C70.7796 73.6819 70.7163 73.8169 70.6742 73.8928C70.6296 73.9802 70.5774 74.0634 70.5181 74.1416C70.4139 74.2957 70.2922 74.4372 70.1555 74.5633C69.9336 74.7533 69.6849 74.9095 69.4175 75.0271C69.0356 75.187 68.632 75.2893 68.22 75.3307C67.891 75.367 67.5599 75.3811 67.229 75.3729C66.6332 75.3568 66.039 75.3047 65.4495 75.2169C64.3449 75.0423 63.2511 74.8058 62.173 74.5084C61.1146 74.2175 60.0646 73.897 59.0399 73.5554C58.0152 73.2139 56.9948 72.8344 55.9785 72.4085L56.5056 70.7892C57.5303 71.0127 58.5719 71.2488 59.6092 71.447C60.6465 71.6452 61.6797 71.8687 62.7086 72.0205C63.7375 72.1723 64.7664 72.3283 65.7616 72.3916C66.2371 72.4291 66.7145 72.4376 67.1911 72.4169C67.3947 72.4072 67.5975 72.3847 67.7983 72.3494C67.9197 72.3304 68.0377 72.2935 68.1483 72.2398C68.1483 72.2398 68.1483 72.2398 68.085 72.2735C68.0462 72.3034 68.0121 72.3389 67.9838 72.3789L67.9332 72.4549C67.9332 72.4549 67.8953 72.5392 67.9332 72.4844C68.0133 72.2651 68.0935 72.0627 68.1609 71.8181C68.3043 71.3627 68.4224 70.8946 68.5278 70.4181C68.7252 69.4432 68.866 68.4576 68.9495 67.4663C69.0422 66.4627 69.0718 65.4423 69.0718 64.4218C69.0718 63.9116 69.0718 63.4013 69.0718 62.8911C69.0718 62.3809 69.0254 61.8538 68.9959 61.3983L72.382 61.002Z" fill="#FF8B7B"/>
<path d="M71.4577 56.9528C72.9125 57.9016 72.4191 66.1708 72.4191 66.1708L68.9951 66.8581C68.9951 66.8581 68.9656 62.6413 68.5987 59.9046C68.3499 58.045 70.4204 56.2739 71.4577 56.9528Z" fill="#FF8B7B"/>
<path d="M59.7353 148.879C59.6942 148.825 59.6663 148.761 59.6539 148.694C59.6414 148.627 59.6448 148.557 59.6636 148.491C59.6714 148.443 59.6914 148.397 59.7216 148.358C59.7518 148.319 59.7913 148.288 59.8365 148.268C60.2582 148.087 61.2196 148.74 61.3293 148.812C61.3416 148.821 61.3511 148.833 61.3563 148.847C61.3616 148.862 61.3625 148.877 61.3588 148.892C61.355 148.908 61.3473 148.922 61.3362 148.934C61.3251 148.946 61.311 148.955 61.2955 148.96C60.8528 149.065 60.0642 149.2 59.769 148.913L59.7353 148.879ZM61.0762 148.846C60.6546 148.597 60.1064 148.314 59.8913 148.424C59.8717 148.433 59.8548 148.447 59.8422 148.465C59.8297 148.483 59.8219 148.504 59.8196 148.525C59.8042 148.574 59.8019 148.625 59.813 148.675C59.8241 148.725 59.8482 148.771 59.8829 148.808C60.0431 148.951 60.4817 148.968 61.0762 148.854V148.846Z" fill="#30084F"/>
<path d="M60.8401 148.58C60.7208 148.461 60.6262 148.319 60.5618 148.162C60.4974 148.006 60.4645 147.839 60.4648 147.67C60.4833 147.607 60.5209 147.552 60.5723 147.512C60.6237 147.472 60.6864 147.449 60.7516 147.446C60.8105 147.437 60.8707 147.441 60.9277 147.459C60.9847 147.476 61.037 147.507 61.0805 147.547C61.4221 147.868 61.363 148.838 61.3588 148.88C61.3582 148.894 61.354 148.908 61.3467 148.921C61.3393 148.933 61.329 148.944 61.3166 148.952C61.3042 148.958 61.2905 148.961 61.2766 148.961C61.2627 148.961 61.2489 148.958 61.2365 148.952C61.0857 148.849 60.952 148.724 60.8401 148.58ZM61.0004 147.703C60.9902 147.691 60.9789 147.68 60.9667 147.67C60.9396 147.643 60.9069 147.624 60.8711 147.612C60.8353 147.6 60.7973 147.597 60.76 147.602C60.6546 147.602 60.6335 147.661 60.6209 147.699C60.5576 147.931 60.9034 148.475 61.207 148.728C61.235 148.374 61.1634 148.019 61.0004 147.703Z" fill="#30084F"/>
<path d="M66.0949 76.2922L66.2425 77.5572C66.2762 77.6542 66.1497 77.7428 65.9937 77.7259L52.0782 76.4946C51.9559 76.4946 51.8631 76.4145 51.8673 76.3386L51.9474 75.1073C51.9474 75.0229 52.0697 74.9597 52.2005 74.9723L65.9009 76.1868C65.9396 76.186 65.9778 76.1954 66.0118 76.2139C66.0458 76.2323 66.0745 76.2593 66.0949 76.2922Z" fill="white"/>
<path d="M64.0018 77.6754L64.3687 77.7049C64.4446 77.7049 64.5036 77.6796 64.5078 77.6332L64.5922 76.035C64.5922 75.9886 64.5374 75.9422 64.4657 75.938L64.0946 75.9043C64.0229 75.9043 63.9596 75.9296 63.9554 75.976L63.8711 77.5784C63.8711 77.6248 63.9301 77.6669 64.0018 77.6754Z" fill="#30084F"/>
<path opacity="0.6" d="M64.0018 77.6754L64.3687 77.7049C64.4446 77.7049 64.5036 77.6796 64.5078 77.6332L64.5922 76.035C64.5922 75.9886 64.5374 75.9422 64.4657 75.938L64.0946 75.9043C64.0229 75.9043 63.9596 75.9296 63.9554 75.976L63.8711 77.5784C63.8711 77.6248 63.9301 77.6669 64.0018 77.6754Z" fill="#040009"/>
<path d="M53.0759 76.7043L53.4428 76.7381C53.5187 76.7381 53.5777 76.7128 53.582 76.6664L53.6663 75.064C53.6663 75.0176 53.6115 74.9754 53.5398 74.967L53.1729 74.9375C53.097 74.9375 53.038 74.9628 53.0338 75.0092L52.9494 76.6074C52.9452 76.6537 53.0043 76.7001 53.0759 76.7043Z" fill="#30084F"/>
<path opacity="0.6" d="M53.0759 76.7043L53.4428 76.7381C53.5187 76.7381 53.5777 76.7128 53.582 76.6664L53.6663 75.064C53.6663 75.0176 53.6115 74.9754 53.5398 74.967L53.1729 74.9375C53.097 74.9375 53.038 74.9628 53.0338 75.0092L52.9494 76.6074C52.9452 76.6537 53.0043 76.7001 53.0759 76.7043Z" fill="#040009"/>
<path d="M58.5428 77.189L58.9097 77.2228C58.9814 77.2228 59.0446 77.1932 59.0446 77.1469L59.1332 75.5487C59.1332 75.5023 59.0784 75.4601 59.0025 75.4517L58.6356 75.418C58.5639 75.418 58.5007 75.4475 58.5007 75.4939L58.4121 77.092C58.4121 77.1384 58.4711 77.168 58.5428 77.189Z" fill="#30084F"/>
<path opacity="0.6" d="M58.5428 77.189L58.9097 77.2228C58.9814 77.2228 59.0446 77.1932 59.0446 77.1469L59.1332 75.5487C59.1332 75.5023 59.0784 75.4601 59.0025 75.4517L58.6356 75.418C58.5639 75.418 58.5007 75.4475 58.5007 75.4939L58.4121 77.092C58.4121 77.1384 58.4711 77.168 58.5428 77.189Z" fill="#040009"/>
<path d="M57.0324 70.8888L54.924 68.0762L54.0469 71.4496C54.0469 71.4496 55.6155 72.8201 56.9481 72.293L57.0324 70.8888Z" fill="#FF8B7B"/>
<path d="M52.2248 67.457L51.6387 70.3034L54.485 71.7582L54.9362 68.0769L52.2248 67.457Z" fill="#FF8B7B"/>
<path d="M61.4266 44.5589L60.752 44.4746C60.752 44.4746 61.1441 44.9258 61.4266 44.5589Z" fill="#263238"/>
</svg>
