<svg width="25" height="24" viewBox="0 0 25 24" fill="none" xmlns="http://www.w3.org/2000/svg">
<path d="M3.5 6C2.95 6 2.5 6.45 2.5 7V20C2.5 21.1 3.4 22 4.5 22H17.5C18.05 22 18.5 21.55 18.5 21C18.5 20.45 18.05 20 17.5 20H5.5C4.95 20 4.5 19.55 4.5 19V7C4.5 6.45 4.05 6 3.5 6ZM20.5 2H8.5C7.4 2 6.5 2.9 6.5 4V16C6.5 17.1 7.4 18 8.5 18H20.5C21.6 18 22.5 17.1 22.5 16V4C22.5 2.9 21.6 2 20.5 2ZM18.5 11H15.5V14C15.5 14.55 15.05 15 14.5 15C13.95 15 13.5 14.55 13.5 14V11H10.5C9.95 11 9.5 10.55 9.5 10C9.5 9.45 9.95 9 10.5 9H13.5V6C13.5 5.45 13.95 5 14.5 5C15.05 5 15.5 5.45 15.5 6V9H18.5C19.05 9 19.5 9.45 19.5 10C19.5 10.55 19.05 11 18.5 11Z" fill="#FEFEFE"/>
</svg>
