<svg width="19" height="18" viewBox="0 0 19 18" fill="none" xmlns="http://www.w3.org/2000/svg">
<path d="M18.1234 16.1066L14.0805 12.0637C15.0538 10.7679 15.5793 9.19064 15.5775 7.57C15.5775 3.43039 12.2096 0.0625 8.07 0.0625C3.93039 0.0625 0.5625 3.43039 0.5625 7.57C0.5625 11.7096 3.93039 15.0775 8.07 15.0775C9.69064 15.0793 11.2679 14.5538 12.5637 13.5805L16.6066 17.6234C16.8113 17.8063 17.0782 17.904 17.3526 17.8963C17.627 17.8886 17.888 17.7762 18.0821 17.5821C18.2762 17.388 18.3886 17.127 18.3963 16.8526C18.404 16.5782 18.3063 16.3113 18.1234 16.1066ZM2.7075 7.57C2.7075 6.5094 3.02201 5.47261 3.61124 4.59075C4.20048 3.7089 5.03799 3.02157 6.01786 2.6157C6.99773 2.20982 8.07595 2.10363 9.11617 2.31054C10.1564 2.51745 11.1119 3.02818 11.8619 3.77814C12.6118 4.5281 13.1225 5.4836 13.3295 6.52383C13.5364 7.56405 13.4302 8.64227 13.0243 9.62214C12.6184 10.602 11.9311 11.4395 11.0492 12.0288C10.1674 12.618 9.1306 12.9325 8.07 12.9325C6.6483 12.9308 5.28532 12.3653 4.28002 11.36C3.27473 10.3547 2.70921 8.9917 2.7075 7.57Z" fill="#040009"/>
</svg>
