<svg width="19" height="10" viewBox="0 0 19 10" fill="none" xmlns="http://www.w3.org/2000/svg">
<path d="M11.2053 8.5272C10.4878 7.95785 9.38725 7.95785 8.66975 8.5272C7.902 9.13644 6.93165 9.5 5.875 9.5C3.38972 9.5 1.375 7.48528 1.375 5C1.375 2.51472 3.38972 0.5 5.875 0.5C6.93165 0.5 7.902 0.863565 8.66975 1.4728C9.38725 2.04215 10.4878 2.04215 11.2053 1.4728C11.973 0.863565 12.9434 0.5 14 0.5C16.4853 0.5 18.5 2.51472 18.5 5C18.5 7.48528 16.4853 9.5 14 9.5C12.9434 9.5 11.973 9.13644 11.2053 8.5272Z" fill="#FDFCFF" stroke="#7A1EF7"/>
<circle cx="5.97266" cy="5.09766" r="2.83203" fill="#7A1EF7"/>
<circle cx="13.9023" cy="5.09766" r="2.83203" fill="#7A1EF7"/>
</svg>
