<svg width="26" height="24" viewBox="0 0 26 24" fill="none" xmlns="http://www.w3.org/2000/svg">
  <path
    d="M4.59486 9.04376L5.32843 10.3254C5.79556 11.1433 6.02828 11.5514 6.02828 12C6.02828 12.4486 5.79556 12.8567 5.32843 13.6729L4.59486 14.9562C2.50712 18.6106 1.46325 20.4369 2.27609 21.3442C3.09061 22.2498 5.01982 21.4066 8.87488 19.7202L19.4586 15.0894C22.4856 13.7656 24 13.1029 24 12C24 10.8971 22.4856 10.2343 19.4586 8.91054L8.87488 4.27974C5.01982 2.59337 3.09061 1.75018 2.27609 2.65576C1.46325 3.56135 2.50712 5.38769 4.59486 9.04376Z"
    fill="none" stroke="#0E0E0F" stroke-width="2.66667" />
</svg>