<svg width="62" height="62" viewBox="0 0 62 62" fill="none" xmlns="http://www.w3.org/2000/svg">
<g filter="url(#filter0_d_713_47294)">
<rect x="5" y="5" width="40" height="40" rx="20" fill="#2D0D57"/>
<g clip-path="url(#clip0_713_47294)">
<path d="M25.5 24.95C25.9833 24.4167 26.3543 23.8083 26.613 23.125C26.8717 22.4417 27.0007 21.7333 27 21C27 20.2667 26.871 19.5583 26.613 18.875C26.355 18.1917 25.984 17.5833 25.5 17.05C26.5 17.1833 27.3333 17.625 28 18.375C28.6667 19.125 29 20 29 21C29 22 28.6667 22.875 28 23.625C27.3333 24.375 26.5 24.8167 25.5 24.95ZM30.45 33C30.6333 32.7 30.771 32.3793 30.863 32.038C30.955 31.6967 31.0007 31.3507 31 31V30C31 29.4 30.8667 28.829 30.6 28.287C30.3333 27.745 29.9833 27.266 29.55 26.85C30.4 27.15 31.1877 27.5377 31.913 28.013C32.6383 28.4883 33.0007 29.1507 33 30V31C33 31.55 32.8043 32.021 32.413 32.413C32.0217 32.805 31.5507 33.0007 31 33H30.45ZM33 24H32C31.7167 24 31.4793 23.904 31.288 23.712C31.0967 23.52 31.0007 23.2827 31 23C31 22.7167 31.096 22.4793 31.288 22.288C31.48 22.0967 31.7173 22.0007 32 22H33V21C33 20.7167 33.096 20.4793 33.288 20.288C33.48 20.0967 33.7173 20.0007 34 20C34.2833 20 34.521 20.096 34.713 20.288C34.905 20.48 35.0007 20.7173 35 21V22H36C36.2833 22 36.521 22.096 36.713 22.288C36.905 22.48 37.0007 22.7173 37 23C37 23.2833 36.904 23.521 36.712 23.713C36.52 23.905 36.2827 24.0007 36 24H35V25C35 25.2833 34.904 25.521 34.712 25.713C34.52 25.905 34.2827 26.0007 34 26C33.7167 26 33.4793 25.904 33.288 25.712C33.0967 25.52 33.0007 25.2827 33 25V24ZM21 25C19.9 25 18.9583 24.6083 18.175 23.825C17.3917 23.0417 17 22.1 17 21C17 19.9 17.3917 18.9583 18.175 18.175C18.9583 17.3917 19.9 17 21 17C22.1 17 23.0417 17.3917 23.825 18.175C24.6083 18.9583 25 19.9 25 21C25 22.1 24.6083 23.0417 23.825 23.825C23.0417 24.6083 22.1 25 21 25ZM13 31V30.2C13 29.6333 13.146 29.1127 13.438 28.638C13.73 28.1633 14.1173 27.8007 14.6 27.55C15.6333 27.0333 16.6833 26.646 17.75 26.388C18.8167 26.13 19.9 26.0007 21 26C22.1 26 23.1833 26.1293 24.25 26.388C25.3167 26.6467 26.3667 27.034 27.4 27.55C27.8833 27.8 28.271 28.1627 28.563 28.638C28.855 29.1133 29.0007 29.634 29 30.2V31C29 31.55 28.8043 32.021 28.413 32.413C28.0217 32.805 27.5507 33.0007 27 33H15C14.45 33 13.9793 32.8043 13.588 32.413C13.1967 32.0217 13.0007 31.5507 13 31Z" fill="#FEFEFE"/>
</g>
</g>
<defs>
<filter id="filter0_d_713_47294" x="0" y="0" width="62" height="62" filterUnits="userSpaceOnUse" color-interpolation-filters="sRGB">
<feFlood flood-opacity="0" result="BackgroundImageFix"/>
<feColorMatrix in="SourceAlpha" type="matrix" values="0 0 0 0 0 0 0 0 0 0 0 0 0 0 0 0 0 0 127 0" result="hardAlpha"/>
<feMorphology radius="1" operator="dilate" in="SourceAlpha" result="effect1_dropShadow_713_47294"/>
<feOffset dx="6" dy="6"/>
<feGaussianBlur stdDeviation="5"/>
<feComposite in2="hardAlpha" operator="out"/>
<feColorMatrix type="matrix" values="0 0 0 0 0 0 0 0 0 0 0 0 0 0 0 0 0 0 0.1 0"/>
<feBlend mode="normal" in2="BackgroundImageFix" result="effect1_dropShadow_713_47294"/>
<feBlend mode="normal" in="SourceGraphic" in2="effect1_dropShadow_713_47294" result="shape"/>
</filter>
<clipPath id="clip0_713_47294">
<rect width="24" height="24" fill="white" transform="translate(13 13)"/>
</clipPath>
</defs>
</svg>
