<svg width="24" height="24" viewBox="0 0 24 24" fill="none" xmlns="http://www.w3.org/2000/svg">
<path d="M5.9999 7.20013C5.99995 6.39807 6.20097 5.6088 6.58462 4.90444C6.96827 4.20008 7.5223 3.60309 8.1961 3.168C8.86989 2.73291 9.64198 2.4736 10.4418 2.41377C11.2416 2.35393 12.0437 2.49547 12.7747 2.82546C13.5058 3.15545 14.1425 3.66337 14.6266 4.3028C15.1108 4.94224 15.4271 5.69281 15.5464 6.48594C15.6658 7.27906 15.5846 8.08947 15.3101 8.8431C15.0356 9.59673 14.5766 10.2696 13.9751 10.8001H13.8155C12.8519 10.8001 11.9927 11.2525 11.4407 11.9581C10.7623 12.0495 10.0722 11.9947 9.41664 11.7975C8.76113 11.6002 8.1554 11.265 7.6401 10.8144C7.12479 10.3637 6.71184 9.80807 6.42894 9.18471C6.14605 8.56134 5.99976 7.88468 5.9999 7.20013ZM10.8635 13.2001H4.8107C4.49467 13.1989 4.18149 13.26 3.88913 13.38C3.59677 13.5001 3.33099 13.6766 3.10701 13.8996C2.88304 14.1226 2.70528 14.3876 2.58394 14.6794C2.4626 14.9712 2.40006 15.2841 2.3999 15.6001C2.3999 17.6293 3.3995 19.1593 4.9619 20.1565C6.5003 21.1369 8.5739 21.6001 10.7999 21.6001C11.7635 21.6001 12.6995 21.5137 13.5755 21.3361L11.6627 19.3837C11.1091 18.8191 10.799 18.06 10.7987 17.2693V13.8193C10.7987 13.6069 10.8227 13.3993 10.8635 13.2001ZM11.9999 17.2681C11.9999 17.7445 12.1859 18.2005 12.5183 18.5401L16.1591 22.2565C16.8551 22.9669 17.9915 22.9837 18.7079 22.2937L22.2443 18.8893C22.4175 18.7223 22.5558 18.5226 22.6512 18.3017C22.7465 18.0808 22.7971 17.8432 22.7999 17.6026C22.8027 17.362 22.7576 17.1233 22.6674 16.9002C22.5772 16.6772 22.4436 16.4743 22.2743 16.3033L18.5459 12.5365C18.3775 12.3666 18.1772 12.2317 17.9564 12.1396C17.7356 12.0475 17.4987 12.0001 17.2595 12.0001H13.8119C13.5737 12.0001 13.3379 12.0471 13.1179 12.1383C12.8979 12.2295 12.6981 12.3632 12.5298 12.5317C12.3615 12.7002 12.2281 12.9002 12.1371 13.1204C12.0462 13.3405 11.9996 13.5764 11.9999 13.8145V17.2681ZM15.2999 16.2001C15.0612 16.2001 14.8323 16.1053 14.6635 15.9365C14.4947 15.7677 14.3999 15.5388 14.3999 15.3001C14.3999 15.0614 14.4947 14.8325 14.6635 14.6637C14.8323 14.4949 15.0612 14.4001 15.2999 14.4001C15.5386 14.4001 15.7675 14.4949 15.9363 14.6637C16.1051 14.8325 16.1999 15.0614 16.1999 15.3001C16.1999 15.5388 16.1051 15.7677 15.9363 15.9365C15.7675 16.1053 15.5386 16.2001 15.2999 16.2001Z" fill="#310A50"/>
</svg>
