<svg width="328" height="229" viewBox="0 0 328 229" fill="none" xmlns="http://www.w3.org/2000/svg">
<rect width="328" height="229" rx="12" fill="#EEEEEE" fill-opacity="0.933333"/>
<rect x="89.5" y="99" width="148" height="32" rx="4" fill="#706080"/>
<path d="M102.5 109C101.95 109 101.5 109.45 101.5 110V123C101.5 124.1 102.4 125 103.5 125H116.5C117.05 125 117.5 124.55 117.5 124C117.5 123.45 117.05 123 116.5 123H104.5C103.95 123 103.5 122.55 103.5 122V110C103.5 109.45 103.05 109 102.5 109ZM119.5 105H107.5C106.4 105 105.5 105.9 105.5 107V119C105.5 120.1 106.4 121 107.5 121H119.5C120.6 121 121.5 120.1 121.5 119V107C121.5 105.9 120.6 105 119.5 105ZM117.5 114H114.5V117C114.5 117.55 114.05 118 113.5 118C112.95 118 112.5 117.55 112.5 117V114H109.5C108.95 114 108.5 113.55 108.5 113C108.5 112.45 108.95 112 109.5 112H112.5V109C112.5 108.45 112.95 108 113.5 108C114.05 108 114.5 108.45 114.5 109V112H117.5C118.05 112 118.5 112.45 118.5 113C118.5 113.55 118.05 114 117.5 114Z" fill="#FEFEFE"/>
<path d="M141.186 120C141.027 119.58 140.878 119.169 140.738 118.768C140.598 118.357 140.453 117.942 140.304 117.522H135.908L135.026 120H133.612C133.985 118.973 134.335 118.026 134.662 117.158C134.989 116.281 135.306 115.45 135.614 114.666C135.931 113.882 136.244 113.135 136.552 112.426C136.86 111.707 137.182 110.998 137.518 110.298H138.764C139.1 110.998 139.422 111.707 139.73 112.426C140.038 113.135 140.346 113.882 140.654 114.666C140.971 115.45 141.293 116.281 141.62 117.158C141.947 118.026 142.297 118.973 142.67 120H141.186ZM139.912 116.402C139.613 115.59 139.315 114.806 139.016 114.05C138.727 113.285 138.423 112.552 138.106 111.852C137.779 112.552 137.467 113.285 137.168 114.05C136.879 114.806 136.589 115.59 136.3 116.402H139.912ZM148.429 114.26C148.271 114.129 148.042 114.003 147.743 113.882C147.445 113.761 147.118 113.7 146.763 113.7C146.39 113.7 146.068 113.77 145.797 113.91C145.536 114.041 145.321 114.227 145.153 114.47C144.985 114.703 144.864 114.983 144.789 115.31C144.715 115.637 144.677 115.987 144.677 116.36C144.677 117.209 144.887 117.867 145.307 118.334C145.727 118.791 146.287 119.02 146.987 119.02C147.342 119.02 147.636 119.006 147.869 118.978C148.112 118.941 148.299 118.903 148.429 118.866V114.26ZM148.429 109.36L149.731 109.136V119.79C149.433 119.874 149.05 119.958 148.583 120.042C148.117 120.126 147.58 120.168 146.973 120.168C146.413 120.168 145.909 120.079 145.461 119.902C145.013 119.725 144.631 119.473 144.313 119.146C143.996 118.819 143.749 118.423 143.571 117.956C143.403 117.48 143.319 116.948 143.319 116.36C143.319 115.8 143.389 115.287 143.529 114.82C143.679 114.353 143.893 113.952 144.173 113.616C144.453 113.28 144.794 113.019 145.195 112.832C145.606 112.645 146.073 112.552 146.595 112.552C147.015 112.552 147.384 112.608 147.701 112.72C148.028 112.832 148.271 112.939 148.429 113.042V109.36ZM156.674 114.26C156.515 114.129 156.286 114.003 155.988 113.882C155.689 113.761 155.362 113.7 155.008 113.7C154.634 113.7 154.312 113.77 154.042 113.91C153.78 114.041 153.566 114.227 153.398 114.47C153.23 114.703 153.108 114.983 153.034 115.31C152.959 115.637 152.922 115.987 152.922 116.36C152.922 117.209 153.132 117.867 153.552 118.334C153.972 118.791 154.532 119.02 155.232 119.02C155.586 119.02 155.88 119.006 156.114 118.978C156.356 118.941 156.543 118.903 156.674 118.866V114.26ZM156.674 109.36L157.976 109.136V119.79C157.677 119.874 157.294 119.958 156.828 120.042C156.361 120.126 155.824 120.168 155.218 120.168C154.658 120.168 154.154 120.079 153.706 119.902C153.258 119.725 152.875 119.473 152.558 119.146C152.24 118.819 151.993 118.423 151.816 117.956C151.648 117.48 151.564 116.948 151.564 116.36C151.564 115.8 151.634 115.287 151.774 114.82C151.923 114.353 152.138 113.952 152.418 113.616C152.698 113.28 153.038 113.019 153.44 112.832C153.85 112.645 154.317 112.552 154.84 112.552C155.26 112.552 155.628 112.608 155.946 112.72C156.272 112.832 156.515 112.939 156.674 113.042V109.36ZM164.672 112.72H167.43V113.812H164.672V117.172C164.672 117.536 164.7 117.839 164.756 118.082C164.812 118.315 164.896 118.502 165.008 118.642C165.12 118.773 165.26 118.866 165.428 118.922C165.596 118.978 165.792 119.006 166.016 119.006C166.408 119.006 166.721 118.964 166.954 118.88C167.197 118.787 167.365 118.721 167.458 118.684L167.71 119.762C167.579 119.827 167.351 119.907 167.024 120C166.697 120.103 166.324 120.154 165.904 120.154C165.409 120.154 164.999 120.093 164.672 119.972C164.355 119.841 164.098 119.65 163.902 119.398C163.706 119.146 163.566 118.838 163.482 118.474C163.407 118.101 163.37 117.671 163.37 117.186V110.69L164.672 110.466V112.72ZM169.087 120V109.36L170.389 109.136V112.86C170.631 112.767 170.888 112.697 171.159 112.65C171.439 112.594 171.714 112.566 171.985 112.566C172.563 112.566 173.044 112.65 173.427 112.818C173.809 112.977 174.113 113.205 174.337 113.504C174.57 113.793 174.733 114.143 174.827 114.554C174.92 114.965 174.967 115.417 174.967 115.912V120H173.665V116.192C173.665 115.744 173.632 115.361 173.567 115.044C173.511 114.727 173.413 114.47 173.273 114.274C173.133 114.078 172.946 113.938 172.713 113.854C172.479 113.761 172.19 113.714 171.845 113.714C171.705 113.714 171.56 113.723 171.411 113.742C171.261 113.761 171.117 113.784 170.977 113.812C170.846 113.831 170.725 113.854 170.613 113.882C170.51 113.91 170.435 113.933 170.389 113.952V120H169.087ZM182.881 119.79C182.582 119.865 182.186 119.944 181.691 120.028C181.206 120.112 180.641 120.154 179.997 120.154C179.437 120.154 178.966 120.075 178.583 119.916C178.2 119.748 177.892 119.515 177.659 119.216C177.426 118.917 177.258 118.567 177.155 118.166C177.052 117.755 177.001 117.303 177.001 116.808V112.72H178.303V116.528C178.303 117.415 178.443 118.049 178.723 118.432C179.003 118.815 179.474 119.006 180.137 119.006C180.277 119.006 180.422 119.001 180.571 118.992C180.72 118.983 180.86 118.973 180.991 118.964C181.122 118.945 181.238 118.931 181.341 118.922C181.453 118.903 181.532 118.885 181.579 118.866V112.72H182.881V119.79ZM185.124 112.93C185.423 112.855 185.815 112.776 186.3 112.692C186.795 112.608 187.364 112.566 188.008 112.566C188.475 112.566 188.867 112.631 189.184 112.762C189.501 112.883 189.767 113.065 189.982 113.308C190.047 113.261 190.15 113.196 190.29 113.112C190.43 113.028 190.603 112.949 190.808 112.874C191.013 112.79 191.242 112.72 191.494 112.664C191.746 112.599 192.017 112.566 192.306 112.566C192.866 112.566 193.323 112.65 193.678 112.818C194.033 112.977 194.308 113.205 194.504 113.504C194.709 113.803 194.845 114.157 194.91 114.568C194.985 114.979 195.022 115.427 195.022 115.912V120H193.72V116.192C193.72 115.763 193.697 115.394 193.65 115.086C193.613 114.778 193.533 114.521 193.412 114.316C193.3 114.111 193.141 113.961 192.936 113.868C192.74 113.765 192.483 113.714 192.166 113.714C191.727 113.714 191.363 113.775 191.074 113.896C190.794 114.008 190.603 114.111 190.5 114.204C190.575 114.447 190.631 114.713 190.668 115.002C190.705 115.291 190.724 115.595 190.724 115.912V120H189.422V116.192C189.422 115.763 189.399 115.394 189.352 115.086C189.305 114.778 189.221 114.521 189.1 114.316C188.988 114.111 188.829 113.961 188.624 113.868C188.428 113.765 188.176 113.714 187.868 113.714C187.737 113.714 187.597 113.719 187.448 113.728C187.299 113.737 187.154 113.751 187.014 113.77C186.883 113.779 186.762 113.793 186.65 113.812C186.538 113.831 186.463 113.845 186.426 113.854V120H185.124V112.93ZM198.485 113.042C198.643 112.939 198.881 112.832 199.199 112.72C199.525 112.608 199.899 112.552 200.319 112.552C200.841 112.552 201.303 112.645 201.705 112.832C202.115 113.019 202.461 113.28 202.741 113.616C203.021 113.952 203.231 114.353 203.371 114.82C203.52 115.287 203.595 115.8 203.595 116.36C203.595 116.948 203.506 117.48 203.329 117.956C203.161 118.423 202.918 118.819 202.601 119.146C202.283 119.473 201.901 119.725 201.453 119.902C201.005 120.079 200.501 120.168 199.941 120.168C199.334 120.168 198.797 120.126 198.331 120.042C197.864 119.958 197.481 119.874 197.183 119.79V109.36L198.485 109.136V113.042ZM198.485 118.866C198.615 118.903 198.797 118.941 199.031 118.978C199.273 119.006 199.572 119.02 199.927 119.02C200.627 119.02 201.187 118.791 201.607 118.334C202.027 117.867 202.237 117.209 202.237 116.36C202.237 115.987 202.199 115.637 202.125 115.31C202.05 114.983 201.929 114.703 201.761 114.47C201.593 114.227 201.373 114.041 201.103 113.91C200.841 113.77 200.524 113.7 200.151 113.7C199.796 113.7 199.469 113.761 199.171 113.882C198.872 114.003 198.643 114.129 198.485 114.26V118.866ZM205.427 112.93C205.725 112.855 206.122 112.776 206.617 112.692C207.111 112.608 207.681 112.566 208.325 112.566C208.903 112.566 209.384 112.65 209.767 112.818C210.149 112.977 210.453 113.205 210.677 113.504C210.91 113.793 211.073 114.143 211.167 114.554C211.26 114.965 211.307 115.417 211.307 115.912V120H210.005V116.192C210.005 115.744 209.972 115.361 209.907 115.044C209.851 114.727 209.753 114.47 209.613 114.274C209.473 114.078 209.286 113.938 209.053 113.854C208.819 113.761 208.53 113.714 208.185 113.714C208.045 113.714 207.9 113.719 207.751 113.728C207.601 113.737 207.457 113.751 207.317 113.77C207.186 113.779 207.065 113.793 206.953 113.812C206.85 113.831 206.775 113.845 206.729 113.854V120H205.427V112.93ZM215.93 119.062C216.238 119.062 216.508 119.057 216.742 119.048C216.984 119.029 217.185 119.001 217.344 118.964V116.794C217.25 116.747 217.096 116.71 216.882 116.682C216.676 116.645 216.424 116.626 216.126 116.626C215.93 116.626 215.72 116.64 215.496 116.668C215.281 116.696 215.08 116.757 214.894 116.85C214.716 116.934 214.567 117.055 214.446 117.214C214.324 117.363 214.264 117.564 214.264 117.816C214.264 118.283 214.413 118.609 214.712 118.796C215.01 118.973 215.416 119.062 215.93 119.062ZM215.818 112.538C216.34 112.538 216.779 112.608 217.134 112.748C217.498 112.879 217.787 113.07 218.002 113.322C218.226 113.565 218.384 113.859 218.478 114.204C218.571 114.54 218.618 114.913 218.618 115.324V119.874C218.506 119.893 218.347 119.921 218.142 119.958C217.946 119.986 217.722 120.014 217.47 120.042C217.218 120.07 216.942 120.093 216.644 120.112C216.354 120.14 216.065 120.154 215.776 120.154C215.365 120.154 214.987 120.112 214.642 120.028C214.296 119.944 213.998 119.813 213.746 119.636C213.494 119.449 213.298 119.207 213.158 118.908C213.018 118.609 212.948 118.25 212.948 117.83C212.948 117.429 213.027 117.083 213.186 116.794C213.354 116.505 213.578 116.271 213.858 116.094C214.138 115.917 214.464 115.786 214.838 115.702C215.211 115.618 215.603 115.576 216.014 115.576C216.144 115.576 216.28 115.585 216.42 115.604C216.56 115.613 216.69 115.632 216.812 115.66C216.942 115.679 217.054 115.697 217.148 115.716C217.241 115.735 217.306 115.749 217.344 115.758V115.394C217.344 115.179 217.32 114.969 217.274 114.764C217.227 114.549 217.143 114.363 217.022 114.204C216.9 114.036 216.732 113.905 216.518 113.812C216.312 113.709 216.042 113.658 215.706 113.658C215.276 113.658 214.898 113.691 214.572 113.756C214.254 113.812 214.016 113.873 213.858 113.938L213.704 112.86C213.872 112.785 214.152 112.715 214.544 112.65C214.936 112.575 215.36 112.538 215.818 112.538ZM222.082 120H220.78V112.72H222.082V120ZM221.424 111.404C221.191 111.404 220.99 111.329 220.822 111.18C220.663 111.021 220.584 110.811 220.584 110.55C220.584 110.289 220.663 110.083 220.822 109.934C220.99 109.775 221.191 109.696 221.424 109.696C221.657 109.696 221.853 109.775 222.012 109.934C222.18 110.083 222.264 110.289 222.264 110.55C222.264 110.811 222.18 111.021 222.012 111.18C221.853 111.329 221.657 111.404 221.424 111.404ZM226.505 120.14C225.703 120.121 225.133 119.949 224.797 119.622C224.461 119.295 224.293 118.787 224.293 118.096V109.36L225.595 109.136V117.886C225.595 118.101 225.614 118.278 225.651 118.418C225.689 118.558 225.749 118.67 225.833 118.754C225.917 118.838 226.029 118.903 226.169 118.95C226.309 118.987 226.482 119.02 226.687 119.048L226.505 120.14Z" fill="#FEFEFE"/>
</svg>
