<svg width="30" height="30" viewBox="0 0 30 30" fill="none" xmlns="http://www.w3.org/2000/svg">
<rect width="30" height="30" rx="15" fill="#FEFEFE"/>
<g clip-path="url(#clip0_1563_53694)">
<mask id="mask0_1563_53694" style="mask-type:luminance" maskUnits="userSpaceOnUse" x="3" y="3" width="24" height="24">
<path d="M3 3H27V27H3V3Z" fill="white"/>
</mask>
<g mask="url(#mask0_1563_53694)">
<path fill-rule="evenodd" clip-rule="evenodd" d="M19.6367 6.47716C19.806 6.60427 19.946 6.76624 20.0474 6.95213C20.1487 7.13802 20.2089 7.34349 20.224 7.55467C20.2391 7.76584 20.2086 7.97779 20.1347 8.17619C20.0608 8.37458 19.9452 8.5548 19.7957 8.70466L19.5002 9.00016C19.3013 9.19908 19.1895 9.46886 19.1895 9.75016C19.1895 10.0315 19.3013 10.3013 19.5002 10.5002C19.6991 10.6991 19.9689 10.8108 20.2502 10.8108C20.5315 10.8108 20.8013 10.6991 21.0002 10.5002L21.2957 10.2047C21.4213 10.0805 21.5674 9.97898 21.7277 9.90466C22.0345 9.76515 22.3797 9.7346 22.7062 9.81807C23.0327 9.90154 23.321 10.094 23.5232 10.3637L25.3877 12.8507C26.2502 13.9997 25.9277 15.6437 24.6962 16.3832C21.2849 18.4299 18.4299 21.2849 16.3832 24.6962C16.2085 24.987 15.9747 25.238 15.697 25.4329C15.4192 25.6277 15.1036 25.7621 14.7706 25.8272C14.4377 25.8924 14.0947 25.887 13.764 25.8113C13.4333 25.7355 13.1221 25.5912 12.8507 25.3877L10.3637 23.5232C10.1944 23.3961 10.0543 23.2341 9.95298 23.0482C9.85165 22.8623 9.79142 22.6568 9.77634 22.4457C9.76127 22.2345 9.79171 22.0225 9.8656 21.8241C9.9395 21.6257 10.0551 21.4455 10.2047 21.2957L10.5002 21.0002C10.6991 20.8013 10.8108 20.5315 10.8108 20.2502C10.8108 19.9689 10.6991 19.6991 10.5002 19.5002C10.3013 19.3013 10.0315 19.1895 9.75016 19.1895C9.46886 19.1895 9.19908 19.3013 9.00016 19.5002L8.70466 19.7957C8.58013 19.9211 8.43373 20.0228 8.27266 20.0957C7.96587 20.2352 7.62063 20.2657 7.29411 20.1823C6.96759 20.0988 6.67936 19.9063 6.47716 19.6367L4.61266 17.1497C4.4091 16.8782 4.26479 16.5671 4.18907 16.2363C4.11335 15.9056 4.1079 15.5627 4.17308 15.2297C4.23826 14.8967 4.37262 14.5811 4.56746 14.3034C4.7623 14.0256 5.01328 13.7918 5.30416 13.6172C8.7154 11.5704 11.5704 8.7154 13.6172 5.30416C13.7918 5.01328 14.0256 4.7623 14.3034 4.56746C14.5811 4.37262 14.8967 4.23826 15.2297 4.17308C15.5627 4.1079 15.9056 4.11335 16.2363 4.18907C16.5671 4.26479 16.8782 4.4091 17.1497 4.61266L19.6367 6.47716ZM15.7997 6.41266L17.6012 7.76266C17.1255 8.40052 16.8953 9.18832 16.9528 9.98196C17.0102 10.7756 17.3515 11.522 17.9142 12.0847C18.4768 12.6473 19.2232 12.9886 20.0169 13.0461C20.8105 13.1035 21.5983 12.8734 22.2362 12.3977L23.5877 14.2007C23.6023 14.2201 23.6126 14.2425 23.6181 14.2662C23.6235 14.2899 23.6239 14.3145 23.6192 14.3384C23.6146 14.3623 23.6049 14.385 23.591 14.4049C23.577 14.4248 23.559 14.4416 23.5382 14.4542C19.81 16.6906 16.6898 19.8104 14.4527 23.5382C14.4401 23.5588 14.4234 23.5766 14.4036 23.5904C14.3838 23.6042 14.3613 23.6138 14.3376 23.6184C14.3139 23.6231 14.2894 23.6228 14.2659 23.6175C14.2423 23.6122 14.2201 23.602 14.2007 23.5877L12.3992 22.2377C12.8749 21.5998 13.105 20.812 13.0476 20.0184C12.9901 19.2247 12.6488 18.4783 12.0862 17.9157C11.5235 17.353 10.7771 17.0117 9.98346 16.9543C9.18982 16.8968 8.40202 17.127 7.76416 17.6027L6.41266 15.7997C6.39831 15.7802 6.38816 15.758 6.38287 15.7345C6.37757 15.7109 6.37724 15.6865 6.3819 15.6628C6.38655 15.6391 6.39609 15.6166 6.40991 15.5968C6.42373 15.5769 6.44153 15.5602 6.46216 15.5477C10.1899 13.3106 13.3097 10.1903 15.5462 6.46216C15.5587 6.44108 15.5756 6.42288 15.5956 6.40877C15.6157 6.39466 15.6385 6.38495 15.6626 6.38027C15.6867 6.3756 15.7114 6.37607 15.7353 6.38165C15.7592 6.38723 15.7817 6.3978 15.8012 6.41266H15.7997ZM14.2952 12.7052C14.1922 12.5946 14.068 12.506 13.93 12.4445C13.792 12.383 13.643 12.3499 13.4919 12.3473C13.3409 12.3446 13.1909 12.3724 13.0508 12.429C12.9107 12.4856 12.7834 12.5698 12.6766 12.6766C12.5698 12.7834 12.4856 12.9107 12.429 13.0508C12.3724 13.1909 12.3446 13.3409 12.3473 13.4919C12.3499 13.643 12.383 13.792 12.4445 13.93C12.506 14.068 12.5946 14.1922 12.7052 14.2952L15.7052 17.2952C15.9184 17.4939 16.2005 17.6021 16.4919 17.5969C16.7834 17.5918 17.0615 17.4737 17.2676 17.2676C17.4737 17.0615 17.5918 16.7834 17.5969 16.4919C17.6021 16.2005 17.4939 15.9184 17.2952 15.7052L14.2952 12.7052Z" fill="#30084F"/>
</g>
</g>
<defs>
<clipPath id="clip0_1563_53694">
<rect width="24" height="24" fill="white" transform="translate(3 3)"/>
</clipPath>
</defs>
</svg>
