<svg width="19" height="18" viewBox="0 0 19 18" fill="none" xmlns="http://www.w3.org/2000/svg">
<path d="M8.21387 9C8.21387 9.39782 8.3719 9.77936 8.65321 10.0607C8.93451 10.342 9.31604 10.5 9.71387 10.5C10.1117 10.5 10.4932 10.342 10.7745 10.0607C11.0558 9.77936 11.2139 9.39782 11.2139 9C11.2139 8.60218 11.0558 8.22064 10.7745 7.93934C10.4932 7.65804 10.1117 7.5 9.71387 7.5C9.31604 7.5 8.93451 7.65804 8.65321 7.93934C8.3719 8.22064 8.21387 8.60218 8.21387 9ZM8.21387 4.5C8.21387 4.89782 8.3719 5.27936 8.65321 5.56066C8.93451 5.84196 9.31604 6 9.71387 6C10.1117 6 10.4932 5.84196 10.7745 5.56066C11.0558 5.27936 11.2139 4.89782 11.2139 4.5C11.2139 4.10218 11.0558 3.72064 10.7745 3.43934C10.4932 3.15804 10.1117 3 9.71387 3C9.31604 3 8.93451 3.15804 8.65321 3.43934C8.3719 3.72064 8.21387 4.10218 8.21387 4.5ZM8.21387 13.5C8.21387 13.8978 8.3719 14.2794 8.65321 14.5607C8.93451 14.842 9.31604 15 9.71387 15C10.1117 15 10.4932 14.842 10.7745 14.5607C11.0558 14.2794 11.2139 13.8978 11.2139 13.5C11.2139 13.1022 11.0558 12.7206 10.7745 12.4393C10.4932 12.158 10.1117 12 9.71387 12C9.31604 12 8.93451 12.158 8.65321 12.4393C8.3719 12.7206 8.21387 13.1022 8.21387 13.5Z" fill="#FEFEFE"/>
</svg>
