<svg width="16" height="16" viewBox="0 0 16 16" fill="none" xmlns="http://www.w3.org/2000/svg">
<path d="M3.87471 6.89815C3.94242 6.89815 4.01794 6.90857 4.10127 6.9294C4.18461 6.95023 4.26794 6.97888 4.35127 7.01534C4.43461 7.0518 4.51794 7.08565 4.60127 7.1169C4.68461 7.14815 4.76013 7.1794 4.82784 7.21065L4.70284 7.22627C4.66117 7.23148 4.6169 7.23409 4.57002 7.23409C4.48148 7.23409 4.40075 7.22107 4.32784 7.19502C4.25492 7.16898 4.18721 7.13513 4.12471 7.09346C4.06221 7.0518 3.99971 7.02055 3.93721 6.99971C3.87471 6.97888 3.81742 6.96325 3.76534 6.95284C3.71325 6.95284 3.66638 6.96325 3.62471 6.98409C3.58305 7.00492 3.54138 7.02836 3.49971 7.0544C3.49971 7.03357 3.48148 7.02315 3.44502 7.02315C3.48148 6.98669 3.54919 6.95805 3.64815 6.93721C3.74711 6.91638 3.82263 6.90336 3.87471 6.89815ZM4.9294 7.24971C5.14294 7.24971 5.33825 7.28617 5.51534 7.35909C5.44242 7.38513 5.3695 7.40596 5.29659 7.42159C5.22367 7.43721 5.14815 7.44763 5.07002 7.45284C4.96586 7.45284 4.87211 7.44242 4.78877 7.42159C4.81482 7.37992 4.84086 7.35388 4.8669 7.34346C4.89294 7.33305 4.91377 7.3018 4.9294 7.24971ZM7.99971 -0.000287961C8.73409 -0.000287961 9.43982 0.0960662 10.1169 0.288775C10.794 0.481483 11.4294 0.749712 12.0231 1.09346C12.6169 1.43721 13.1586 1.85648 13.6481 2.35127C14.1377 2.84607 14.5544 3.38513 14.8981 3.96846C15.2419 4.5518 15.5127 5.18721 15.7106 5.87471C15.9086 6.56221 16.0049 7.27055 15.9997 7.99971C15.9997 8.73409 15.9034 9.43982 15.7106 10.1169C15.5179 10.794 15.2497 11.4294 14.906 12.0231C14.5622 12.6169 14.1429 13.1586 13.6481 13.6481C13.1534 14.1377 12.6143 14.5544 12.031 14.8981C11.4476 15.2419 10.8122 15.5127 10.1247 15.7106C9.43721 15.9086 8.72888 16.0049 7.99971 15.9997C7.26534 15.9997 6.55961 15.9034 5.88252 15.7106C5.20544 15.5179 4.57002 15.2497 3.97627 14.906C3.38252 14.5622 2.84086 14.1429 2.35127 13.6481C1.86169 13.1534 1.44502 12.6143 1.10127 12.031C0.757524 11.4476 0.486691 10.8122 0.288775 10.1247C0.0908579 9.43721 -0.00549629 8.72888 -0.000287961 7.99971C-0.000287961 7.26534 0.0960662 6.55961 0.288775 5.88252C0.481483 5.20544 0.749712 4.57002 1.09346 3.97627C1.43721 3.38252 1.85648 2.84086 2.35127 2.35127C2.84607 1.86169 3.38513 1.44502 3.96846 1.10127C4.5518 0.757524 5.18721 0.486691 5.87471 0.288775C6.56221 0.0908579 7.27055 -0.00549629 7.99971 -0.000287961ZM13.9528 4.33565C13.8799 4.22107 13.807 4.11169 13.7341 4.00752C13.6612 3.90336 13.5856 3.79659 13.5075 3.68721C13.4971 3.73409 13.4841 3.76794 13.4685 3.78877C13.4528 3.80961 13.4424 3.85648 13.4372 3.9294C13.4372 3.97627 13.4554 4.02055 13.4919 4.06221C13.5284 4.10388 13.5752 4.14555 13.6325 4.18721C13.6898 4.22888 13.7471 4.26013 13.8044 4.28096C13.8617 4.3018 13.9112 4.32002 13.9528 4.33565ZM13.4138 3.57002C13.4138 3.61169 13.406 3.64034 13.3903 3.65596H13.4372C13.458 3.65596 13.4737 3.65857 13.4841 3.66377L13.4138 3.57002ZM7.99971 14.9997C8.59346 14.9997 9.17419 14.9242 9.7419 14.7731C10.3096 14.6221 10.8461 14.4086 11.3513 14.1325C11.8565 13.8565 12.3252 13.5179 12.7575 13.1169C13.1898 12.7159 13.5674 12.2679 13.8903 11.7731C13.8226 11.6169 13.7575 11.458 13.695 11.2966C13.6325 11.1351 13.6013 10.9685 13.6013 10.7966C13.6013 10.6091 13.6091 10.458 13.6247 10.3435C13.6403 10.2289 13.6586 10.1273 13.6794 10.0388C13.7002 9.95023 13.7106 9.87471 13.7106 9.81221C13.7106 9.74971 13.7028 9.66898 13.6872 9.57002C13.6716 9.47107 13.6273 9.3643 13.5544 9.24971C13.4815 9.13513 13.3851 8.97367 13.2653 8.76534C13.2705 8.72888 13.2784 8.6794 13.2888 8.6169C13.2992 8.5544 13.3096 8.4893 13.32 8.42159C13.3304 8.35388 13.333 8.29138 13.3278 8.23409C13.3226 8.1768 13.3096 8.12732 13.2888 8.08565C13.1534 8.07002 13.0127 8.04138 12.8669 7.99971C12.7211 7.95805 12.5909 7.89555 12.4763 7.81221L12.5231 7.77315C12.4554 7.78877 12.3877 7.80961 12.32 7.83565C12.2523 7.86169 12.1872 7.89034 12.1247 7.92159C12.0622 7.95284 11.9945 7.97367 11.9216 7.98409C11.8487 7.9945 11.7784 8.00492 11.7106 8.01534L11.5856 7.99971L11.6091 7.94502C11.5362 7.96586 11.458 7.9919 11.3747 8.02315C11.2914 8.0544 11.2106 8.07002 11.1325 8.07002C11.0804 8.07002 11.0049 8.0518 10.906 8.01534C10.807 7.97888 10.708 7.93461 10.6091 7.88252C10.5101 7.83044 10.4216 7.77315 10.3435 7.71065C10.2653 7.64815 10.2263 7.58825 10.2263 7.53096L10.2419 7.50752C10.2159 7.47627 10.182 7.44763 10.1403 7.42159C10.0987 7.39555 10.0596 7.3695 10.0231 7.34346C9.98669 7.31742 9.95284 7.28877 9.92159 7.25752C9.89034 7.22627 9.87732 7.18982 9.88252 7.14815L9.96846 7.07784L9.78877 7.0544L9.72627 6.82002C9.73669 6.84607 9.76013 6.85648 9.79659 6.85127C9.83305 6.84607 9.86169 6.83565 9.88252 6.82002L9.60127 6.67159L9.79659 6.17159C9.72367 5.90075 9.70544 5.69242 9.7419 5.54659C9.77836 5.40075 9.84867 5.28096 9.95284 5.18721C10.057 5.09346 10.1716 4.99971 10.2966 4.90596C10.4216 4.81221 10.5492 4.68461 10.6794 4.52315L10.656 4.4294L11.1716 3.8044L11.2888 3.78877C11.4346 3.78877 11.5987 3.78357 11.781 3.77315C11.9633 3.76273 12.1481 3.7445 12.3356 3.71846C12.5231 3.69242 12.708 3.66638 12.8903 3.64034C13.0726 3.6143 13.2393 3.58044 13.3903 3.53877C13.2237 3.34086 13.0492 3.15336 12.8669 2.97627C12.6846 2.79919 12.4893 2.62992 12.281 2.46846C12.2237 2.4893 12.1534 2.51794 12.07 2.5544C11.9867 2.59086 11.9034 2.63773 11.82 2.69502C11.7367 2.75232 11.6716 2.81482 11.6247 2.88252C11.5778 2.95023 11.5492 3.02055 11.5388 3.09346L11.5856 3.2419C11.4919 3.39294 11.3877 3.48669 11.2731 3.52315C11.1586 3.55961 11.0414 3.58044 10.9216 3.58565C10.8018 3.59086 10.6768 3.59086 10.5466 3.58565C10.4164 3.58044 10.2914 3.60388 10.1716 3.65596L10.0466 3.39034L10.1638 2.93721L10.031 2.7419L11.3825 2.32002C11.3252 2.17419 11.2315 2.06482 11.1013 1.9919C10.9711 1.91898 10.8278 1.88252 10.6716 1.88252V1.8044L11.1091 1.73409C10.6247 1.4945 10.1221 1.31221 9.60127 1.18721C9.08044 1.06221 8.54659 0.999712 7.99971 0.999712C7.54659 0.999712 7.09867 1.04398 6.65596 1.13252C6.21325 1.22107 5.78617 1.34867 5.37471 1.51534C4.96325 1.682 4.56482 1.89034 4.1794 2.14034C3.79398 2.39034 3.44242 2.67159 3.12471 2.98409C3.26013 2.98409 3.3643 3.01794 3.43721 3.08565C3.51013 3.15336 3.57784 3.22888 3.64034 3.31221C3.70284 3.39555 3.76794 3.47107 3.83565 3.53877C3.90336 3.60648 3.9945 3.64294 4.10909 3.64815L4.23409 3.5544L4.21846 3.38252L4.47627 3.01534L4.27315 2.43721C4.29919 2.42159 4.33825 2.39555 4.39034 2.35909C4.44242 2.32263 4.48669 2.3044 4.52315 2.3044C4.6794 2.3044 4.79919 2.31221 4.88252 2.32784C4.96586 2.34346 5.03877 2.37211 5.10127 2.41377C5.16377 2.45544 5.21846 2.51534 5.26534 2.59346C5.31221 2.67159 5.38513 2.77055 5.48409 2.89034L5.76534 2.67159C5.81742 2.69242 5.90075 2.72627 6.01534 2.77315C6.12992 2.82002 6.24711 2.87732 6.3669 2.94502C6.48669 3.01273 6.58825 3.08305 6.67159 3.15596C6.75492 3.22888 6.79919 3.29659 6.8044 3.35909C6.8044 3.43721 6.77575 3.49971 6.71846 3.54659C6.66117 3.59346 6.58565 3.63252 6.4919 3.66377C6.39815 3.69502 6.3018 3.71846 6.20284 3.73409C6.10388 3.74971 6.00492 3.77055 5.90596 3.79659C5.807 3.82263 5.73148 3.84867 5.6794 3.87471C5.62732 3.90075 5.59607 3.94502 5.58565 4.00752L6.03877 4.15596C5.93461 4.2445 5.82263 4.32523 5.70284 4.39815C5.58305 4.47107 5.45805 4.53877 5.32784 4.60127L5.35909 4.73409L4.64034 5.01534V5.23409L4.58565 5.25752L4.62471 4.98409L4.59346 4.97627C4.557 4.97627 4.53617 4.98409 4.53096 4.99971C4.52575 5.01534 4.52315 5.03357 4.52315 5.0544C4.52315 5.07523 4.52836 5.09607 4.53877 5.1169C4.54919 5.13773 4.5518 5.15336 4.54659 5.16377L4.44502 5.10909L4.46065 5.14034C4.46065 5.15596 4.46846 5.1794 4.48409 5.21065C4.49971 5.2419 4.52055 5.27055 4.54659 5.29659C4.57263 5.32263 4.59346 5.34867 4.60909 5.37471C4.62471 5.40075 4.63513 5.41377 4.64034 5.41377C4.64034 5.4294 4.62992 5.44502 4.60909 5.46065C4.58825 5.47627 4.56221 5.48669 4.53096 5.4919C4.49971 5.49711 4.47888 5.50492 4.46846 5.51534C4.45805 5.52575 4.45805 5.52836 4.46846 5.52315C4.54138 5.52315 4.557 5.52836 4.51534 5.53877C4.47367 5.54919 4.40857 5.57523 4.32002 5.6169C4.23148 5.65857 4.15075 5.71846 4.07784 5.79659C4.00492 5.87471 3.96325 5.9893 3.95284 6.14034C3.95284 6.22888 3.95544 6.31482 3.96065 6.39815C3.96586 6.48148 3.96325 6.56742 3.95284 6.65596C3.87992 6.45805 3.77055 6.307 3.62471 6.20284C3.47888 6.09867 3.3018 6.04659 3.09346 6.04659L2.75752 6.07784L2.92159 6.18721C2.83305 6.1768 2.7419 6.16638 2.64815 6.15596C2.5544 6.14555 2.45805 6.14294 2.35909 6.14815C2.26013 6.15336 2.17159 6.17419 2.09346 6.21065C2.01534 6.24711 1.93721 6.3018 1.85909 6.37471L1.81221 6.72627C1.81221 6.89294 1.84867 7.02836 1.92159 7.13252C1.9945 7.23669 2.12211 7.29138 2.3044 7.29659C2.46065 7.29659 2.6143 7.27315 2.76534 7.22627C2.91638 7.1794 3.06482 7.12471 3.21065 7.06221C3.16377 7.1768 3.11169 7.28617 3.0544 7.39034C2.99711 7.4945 2.95544 7.60909 2.9294 7.73409L3.03096 7.78096C3.15596 7.69763 3.27055 7.68461 3.37471 7.7419C3.47888 7.79919 3.58044 7.88252 3.6794 7.9919C3.77836 8.10127 3.87992 8.21325 3.98409 8.32784C4.08825 8.44242 4.20023 8.52575 4.32002 8.57784L4.0544 8.71846L3.4294 8.3669C3.43461 8.37732 3.43982 8.40075 3.44502 8.43721C3.45023 8.47367 3.44763 8.48148 3.43721 8.46065L3.15596 7.98409C2.9893 7.97888 2.81221 7.95284 2.62471 7.90596C2.43721 7.85909 2.24711 7.79659 2.0544 7.71846C1.86169 7.64034 1.682 7.5544 1.51534 7.46065C1.34867 7.3669 1.19502 7.26794 1.0544 7.16377L0.999712 7.99971C0.999712 8.63513 1.08565 9.25492 1.25752 9.85909C1.4294 10.4633 1.67159 11.031 1.98409 11.5622C2.29659 12.0935 2.6794 12.5778 3.13252 13.0153C3.58565 13.4528 4.08825 13.8252 4.64034 14.1325C4.6143 14.0231 4.61169 13.9138 4.63252 13.8044C4.65336 13.695 4.6794 13.5856 4.71065 13.4763C4.7419 13.3669 4.77575 13.2575 4.81221 13.1481C4.84867 13.0388 4.8669 12.9268 4.8669 12.8122C4.8669 12.6455 4.84086 12.4711 4.78877 12.2888C4.73669 12.1065 4.67419 11.9216 4.60127 11.7341C4.52836 11.5466 4.44763 11.3617 4.35909 11.1794C4.27055 10.9971 4.20023 10.8252 4.14815 10.6638C4.09607 10.5023 4.0544 10.3513 4.02315 10.2106C3.9919 10.07 4.00752 9.94763 4.07002 9.84346L3.95284 9.78877C3.98409 9.71586 4.02575 9.64555 4.07784 9.57784C4.12992 9.51013 4.18461 9.44242 4.2419 9.37471C4.29919 9.307 4.34346 9.23409 4.37471 9.15596C4.40596 9.07784 4.42419 8.99971 4.4294 8.92159C4.4294 8.8695 4.41898 8.81482 4.39815 8.75752C4.37732 8.70023 4.35909 8.64555 4.34346 8.59346L4.50752 8.63252C4.59607 8.4294 4.71586 8.29138 4.8669 8.21846C5.01794 8.14555 5.20805 8.10648 5.43721 8.10127C5.46325 8.10127 5.51794 8.11169 5.60127 8.13252C5.68461 8.15336 5.77315 8.182 5.8669 8.21846C5.96065 8.25492 6.04919 8.28357 6.13252 8.3044C6.21586 8.32523 6.27836 8.34607 6.32002 8.3669C6.32002 8.40336 6.34086 8.4268 6.38252 8.43721C6.42419 8.44763 6.44763 8.46586 6.45284 8.4919L6.43721 8.5544C6.45284 8.55961 6.4893 8.57784 6.54659 8.60909C6.60388 8.64034 6.66638 8.6794 6.73409 8.72627C6.8018 8.77315 6.86169 8.81482 6.91377 8.85127C6.96586 8.88773 7.00232 8.91638 7.02315 8.93721C7.1169 8.93721 7.2445 8.96846 7.40596 9.03096C7.56742 9.09346 7.7445 9.17159 7.93721 9.26534C8.12992 9.35909 8.32002 9.47107 8.50752 9.60127C8.69502 9.73148 8.87211 9.86169 9.03877 9.9919C9.20544 10.1221 9.33305 10.2523 9.42159 10.3825C9.51013 10.5127 9.56221 10.6273 9.57784 10.7263L9.31221 11.0075C9.33305 11.2731 9.31482 11.4763 9.25752 11.6169C9.20023 11.7575 9.11169 11.8747 8.9919 11.9685C8.87211 12.0622 8.73409 12.1403 8.57784 12.2028C8.42159 12.2653 8.25232 12.3539 8.07002 12.4685C8.07002 12.5726 8.04398 12.6846 7.9919 12.8044C7.93982 12.9242 7.87471 13.0388 7.79659 13.1481C7.71846 13.2575 7.62471 13.3487 7.51534 13.4216C7.40596 13.4945 7.29659 13.531 7.18721 13.531L6.85909 13.281C6.8695 13.2914 6.8695 13.3096 6.85909 13.3356C6.84867 13.3617 6.83565 13.3669 6.82002 13.3513C6.87211 13.4502 6.88513 13.5648 6.85909 13.695C6.83305 13.8252 6.78877 13.958 6.72627 14.0935C6.66377 14.2289 6.59346 14.3565 6.51534 14.4763C6.43721 14.5961 6.3669 14.6976 6.3044 14.781C6.58565 14.8539 6.8669 14.9086 7.14815 14.945C7.4294 14.9815 7.71325 14.9997 7.99971 14.9997Z" fill="#040009"/>
</svg>
