<svg width="16" height="16" viewBox="0 0 16 16" fill="none" xmlns="http://www.w3.org/2000/svg">
<rect x="0.5" y="0.5" width="15" height="15" rx="7.5" fill="#0A090C"/>
<rect x="0.5" y="0.5" width="15" height="15" rx="7.5" stroke="#040009"/>
<path d="M7.62 7.684L8.508 6.316H9.524L8.148 8.292C8.436 8.66533 8.71067 9.044 8.972 9.428C9.23867 9.80667 9.45733 10.164 9.628 10.5H8.58C8.532 10.3987 8.468 10.284 8.388 10.156C8.31333 10.0227 8.23067 9.88667 8.14 9.748C8.05467 9.604 7.964 9.46267 7.868 9.324C7.772 9.18533 7.67867 9.05467 7.588 8.932C7.40133 9.172 7.21733 9.43867 7.036 9.732C6.86 10.02 6.71333 10.276 6.596 10.5H5.604C5.684 10.34 5.78 10.1693 5.892 9.988C6.004 9.80667 6.124 9.62267 6.252 9.436C6.38 9.244 6.51067 9.05467 6.644 8.868C6.78267 8.676 6.91867 8.49467 7.052 8.324L5.668 6.316H6.732L7.62 7.684Z" fill="white"/>
</svg>
